<?xml version="1.0" encoding="utf-8"?>
<svg version="1.1" xmlns="http://www.w3.org/2000/svg" viewBox="0 0 1600 1200">
  <style type="text/css">
    .st0{fill:#DEEBFF;}
    .st1{fill:#F0F1F6;}
    .st2{fill:#261134;}
    .st3{fill:#E9EAEE;}
    .st4{fill:#D8DAE6;}
    .st5{fill:#F27B79;}
    .st6{fill:#31B8ED;}
    .st7{fill:#FFFFFF;}
    .st8{fill:#FAD338;}
    .st9{fill:#1BA096;}
    .st10{fill:#CDCBCC;}
    .st11{fill:#FEFEFE;}
    .st12{fill:#F27A79;}
    .st13{fill:#FAD43B;}
    .st14{fill:#6EBCB2;}
    .st15{fill:#21223E;}
  </style>
  <g id="_x31__1_">
    <g id="Background">
      <g>
        <g>
          <rect y="0" class="st0" width="1600" height="1200"/>
        </g>
      </g>
    </g>
    <g id="Screen">
      <g>
        <g>
          <g>
            <g>
              <path class="st11" d="M1318.8,270.2v608.4c0,14.4-11.7,26.2-26.2,26.2H354.5c-14.4,0-26.2-11.7-26.2-26.2V270.2
                c0-14.4,11.7-26.2,26.2-26.2h938.1C1307.1,244.1,1318.8,255.8,1318.8,270.2z"/>
            </g>
          </g>
          <g>
            <g>
              <path d="M1292.7,905.3H354.5c-14.7,0-26.7-12-26.7-26.7V270.2c0-14.7,12-26.7,26.7-26.7h938.1c14.7,0,26.7,12,26.7,26.7
                v608.4C1319.3,893.3,1307.4,905.3,1292.7,905.3z M354.5,244.6c-14.1,0-25.7,11.5-25.7,25.7v608.4
                c0,14.1,11.5,25.7,25.7,25.7h938.1c14.1,0,25.7-11.5,25.7-25.7V270.2c0-14.1-11.5-25.7-25.7-25.7H354.5z"/>
            </g>
          </g>
        </g>
        <g>
          <g>
            <path class="st2" d="M1318.8,269.2v31.8H328.4v-31.8c0-14.4,11.7-26.2,26.2-26.2h938.1
              C1307.1,243.1,1318.8,254.8,1318.8,269.2z"/>
          </g>
        </g>
        <g>
          <g>
            <g>
              <rect x="380.1" y="347.1" class="st6" width="114.3" height="40.9"/>
            </g>
          </g>
          <g>
            <g>
              <path class="st2" d="M494.9,388.6H379.6v-41.9h115.3V388.6z M380.6,387.6h113.3v-39.9H380.6V387.6z"/>
            </g>
          </g>
        </g>
        <g>
          <g>
            <g>
              <rect x="525.7" y="347.1" class="st11" width="512.3" height="40.9"/>
            </g>
          </g>
          <g>
            <g>
              <path class="st2" d="M1038.5,388.6H525.2v-41.9h513.3V388.6z M526.2,387.6h511.3v-39.9H526.2V387.6z"/>
            </g>
          </g>
        </g>
        <g>
          <g>
            <g>
              <circle class="st12" cx="386.4" cy="271.5" r="12.5"/>
            </g>
          </g>
          <g>
            <g>
              <circle class="st13" cx="426.2" cy="271.5" r="12.5"/>
            </g>
          </g>
          <g>
            <g>
              <circle class="st14" cx="467.1" cy="271.5" r="12.5"/>
            </g>
          </g>
        </g>
        <g>
          <g>
            <g>
              <rect x="1071.5" y="347.1" class="st11" width="82.4" height="40.9"/>
            </g>
          </g>
          <g>
            <g>
              <path class="st2" d="M1154.5,388.6H1071v-41.9h83.4V388.6z M1072,387.6h81.4v-39.9H1072V387.6z"/>
            </g>
          </g>
        </g>
        <g>
          <g>
            <g>
              <rect x="1179.5" y="347.1" class="st9" width="82.4" height="40.9"/>
            </g>
          </g>
          <g>
            <g>
              <path class="st2" d="M1262.5,388.6H1179v-41.9h83.4V388.6z M1180,387.6h81.4v-39.9H1180V387.6z"/>
            </g>
          </g>
        </g>
      </g>
      <g>
        <g>
          <g>
            <g>
              <path class="st11" d="M526.5,810.2v32.2c0,2.7,2.2,4.9,4.9,4.9h224.8c2.7,0,4.9-2.2,4.9-4.9v-32.2c0-2.7-2.2-4.9-4.9-4.9
                H531.4C528.7,805.3,526.5,807.5,526.5,810.2z"/>
            </g>
          </g>
          <g>
            <g>
              <path class="st2" d="M756.1,847.7H531.4c-3,0-5.4-2.4-5.4-5.4v-32.2c0-3,2.4-5.4,5.4-5.4h224.8c3,0,5.4,2.4,5.4,5.4v32.2
                C761.5,845.3,759.1,847.7,756.1,847.7z M531.4,805.8c-2.4,0-4.4,2-4.4,4.4v32.2c0,2.4,2,4.4,4.4,4.4h224.8
                c2.4,0,4.4-2,4.4-4.4v-32.2c0-2.4-2-4.4-4.4-4.4H531.4z"/>
            </g>
          </g>
        </g>
        <g>
          <g>
            <g>
              <circle class="st8" cx="551.1" cy="826.6" r="10.3"/>
            </g>
          </g>
          <g>
            <g>
              <path class="st2" d="M551.1,837.4c-6,0-10.8-4.9-10.8-10.8s4.9-10.8,10.8-10.8s10.8,4.9,10.8,10.8S557.1,837.4,551.1,837.4z
                  M551.1,816.7c-5.4,0-9.8,4.4-9.8,9.8s4.4,9.8,9.8,9.8s9.8-4.4,9.8-9.8S556.5,816.7,551.1,816.7z"/>
            </g>
          </g>
        </g>
        <g>
          <g>
            <g>
              <rect x="569.3" y="821.1" class="st5" width="177.4" height="10.3"/>
            </g>
          </g>
          <g>
            <g>
              <path class="st2" d="M747.2,831.9H568.8v-11.3h178.4V831.9z M569.8,830.9h176.4v-9.3H569.8V830.9z"/>
            </g>
          </g>
        </g>
      </g>
      <g>
        <g>
          <g>
            <g>
              <path class="st11" d="M802.5,810.2v32.2c0,2.7,2.2,4.9,4.9,4.9h224.8c2.7,0,4.9-2.2,4.9-4.9v-32.2c0-2.7-2.2-4.9-4.9-4.9
                H807.4C804.7,805.3,802.5,807.5,802.5,810.2z"/>
            </g>
          </g>
          <g>
            <g>
              <path class="st2" d="M1032.1,847.7H807.4c-3,0-5.4-2.4-5.4-5.4v-32.2c0-3,2.4-5.4,5.4-5.4h224.8c3,0,5.4,2.4,5.4,5.4v32.2
                C1037.5,845.3,1035.1,847.7,1032.1,847.7z M807.4,805.8c-2.4,0-4.4,2-4.4,4.4v32.2c0,2.4,2,4.4,4.4,4.4h224.8
                c2.4,0,4.4-2,4.4-4.4v-32.2c0-2.4-2-4.4-4.4-4.4H807.4z"/>
            </g>
          </g>
        </g>
        <g>
          <g>
            <g>
              <circle class="st8" cx="827.1" cy="826.6" r="10.3"/>
            </g>
          </g>
          <g>
            <g>
              <path class="st2" d="M827.1,837.4c-6,0-10.8-4.9-10.8-10.8s4.9-10.8,10.8-10.8s10.8,4.9,10.8,10.8S833.1,837.4,827.1,837.4z
                  M827.1,816.7c-5.4,0-9.8,4.4-9.8,9.8s4.4,9.8,9.8,9.8s9.8-4.4,9.8-9.8S832.5,816.7,827.1,816.7z"/>
            </g>
          </g>
        </g>
        <g>
          <g>
            <g>
              <rect x="845.3" y="821.1" class="st5" width="177.4" height="10.3"/>
            </g>
          </g>
          <g>
            <g>
              <path class="st2" d="M1023.2,831.9H844.8v-11.3h178.4V831.9z M845.8,830.9h176.4v-9.3H845.8V830.9z"/>
            </g>
          </g>
        </g>
      </g>
      <g>
        <g>
          <g>
            <g>
              <path class="st11" d="M1036.5,451.3v296.5c0,5.5-4.4,9.9-9.9,9.9H812.7c-5.5,0-9.9-4.4-9.9-9.9V451.3c0-5.5,4.4-9.9,9.9-9.9
                h213.9C1032.1,441.4,1036.5,445.8,1036.5,451.3z"/>
            </g>
          </g>
          <g>
            <g>
              <path class="st2" d="M1026.6,758.1H812.7c-5.7,0-10.4-4.7-10.4-10.4V451.3c0-5.7,4.7-10.4,10.4-10.4h213.9
                c5.7,0,10.4,4.7,10.4,10.4v296.5C1037,753.5,1032.4,758.1,1026.6,758.1z M812.7,441.9c-5.2,0-9.4,4.2-9.4,9.4v296.5
                c0,5.2,4.2,9.4,9.4,9.4h213.9c5.2,0,9.4-4.2,9.4-9.4V451.3c0-5.2-4.2-9.4-9.4-9.4H812.7z"/>
            </g>
          </g>
        </g>
        <g>
          <g>
            <g>
              <path class="st11" d="M1036.5,451.3v182.5H802.8V451.3c0-5.5,4.4-9.9,9.9-9.9h213.9C1032.1,441.4,1036.5,445.8,1036.5,451.3
                z"/>
            </g>
          </g>
          <g>
            <g>
              <path class="st2" d="M1037,634.3H802.3v-183c0-5.7,4.7-10.4,10.4-10.4h213.9c5.7,0,10.4,4.7,10.4,10.4V634.3z M803.3,633.3
                H1036v-182c0-5.2-4.2-9.4-9.4-9.4H812.7c-5.2,0-9.4,4.2-9.4,9.4V633.3z"/>
            </g>
          </g>
        </g>
        <g>
          <g>
            <g>
              <rect x="824.2" y="653" class="st11" width="190.5" height="11.7"/>
            </g>
          </g>
          <g>
            <g>
              <path class="st2" d="M1015.2,665.2H823.7v-12.7h191.5V665.2z M824.7,664.2h189.5v-10.7H824.7V664.2z"/>
            </g>
          </g>
        </g>
        <g>
          <g>
            <g>
              <rect x="824.2" y="678.3" class="st11" width="190.5" height="11.7"/>
            </g>
          </g>
          <g>
            <g>
              <path class="st2" d="M1015.2,690.6H823.7v-12.7h191.5V690.6z M824.7,689.6h189.5v-10.7H824.7V689.6z"/>
            </g>
          </g>
        </g>
        <g>
          <g>
            <g>
              <rect x="824.2" y="703.7" class="st6" width="101.8" height="11.7"/>
            </g>
          </g>
          <g>
            <g>
              <path class="st2" d="M926.5,715.9H823.7v-12.7h102.8V715.9z M824.7,714.9h100.8v-10.7H824.7V714.9z"/>
            </g>
          </g>
        </g>
        <g>
          <g>
            <g>
              <polygon class="st8" points="834.7,726.7 837.5,732.3 843.6,733.2 839.2,737.5 840.2,743.6 834.7,740.7 829.3,743.6 
                830.3,737.5 825.9,733.2 832,732.3 								"/>
            </g>
          </g>
          <g>
            <g>
              <path class="st2" d="M840.9,744.5l-6.1-3.2l-6.1,3.2l1.2-6.8l-5-4.8l6.9-1l3.1-6.2l3.1,6.2l6.9,1l-5,4.8L840.9,744.5z
                  M834.7,740.1l4.8,2.5l-0.9-5.4l3.9-3.8l-5.4-0.8l-2.4-4.9l-2.4,4.9l-5.4,0.8l3.9,3.8l-0.9,5.4L834.7,740.1z"/>
            </g>
          </g>
        </g>
        <g>
          <g>
            <g>
              <polygon class="st8" points="863.1,726.7 865.8,732.3 872,733.2 867.5,737.5 868.6,743.6 863.1,740.7 857.6,743.6 
                858.7,737.5 854.2,733.2 860.4,732.3 								"/>
            </g>
          </g>
          <g>
            <g>
              <path class="st2" d="M869.2,744.5l-6.1-3.2l-6.1,3.2l1.2-6.8l-5-4.8l6.9-1l3.1-6.2l3.1,6.2l6.9,1l-5,4.8L869.2,744.5z
                  M863.1,740.1l4.8,2.5l-0.9-5.4l3.9-3.8l-5.4-0.8l-2.4-4.9l-2.4,4.9l-5.4,0.8l3.9,3.8l-0.9,5.4L863.1,740.1z"/>
            </g>
          </g>
        </g>
        <g>
          <g>
            <g>
              <polygon class="st8" points="892.6,726.7 895.3,732.3 901.4,733.2 897,737.5 898.1,743.6 892.6,740.7 887.1,743.6 
                888.2,737.5 883.7,733.2 889.8,732.3 								"/>
            </g>
          </g>
          <g>
            <g>
              <path class="st2" d="M898.7,744.5l-6.1-3.2l-6.1,3.2l1.2-6.8l-5-4.8l6.9-1l3.1-6.2l3.1,6.2l6.9,1l-5,4.8L898.7,744.5z
                  M892.6,740.1l4.8,2.5l-0.9-5.4l3.9-3.8l-5.4-0.8l-2.4-4.9l-2.4,4.9l-5.4,0.8l3.9,3.8l-0.9,5.4L892.6,740.1z"/>
            </g>
          </g>
        </g>
        <g>
          <g>
            <g>
              <polygon class="st8" points="922.1,726.7 924.8,732.3 930.9,733.2 926.5,737.5 927.6,743.6 922.1,740.7 916.6,743.6 
                917.6,737.5 913.2,733.2 919.3,732.3 								"/>
            </g>
          </g>
          <g>
            <g>
              <path class="st2" d="M928.2,744.5l-6.1-3.2l-6.1,3.2l1.2-6.8l-5-4.8l6.9-1l3.1-6.2l3.1,6.2l6.9,1l-5,4.8L928.2,744.5z
                  M914.3,733.5l3.9,3.8l-0.9,5.4l4.8-2.5l4.8,2.5l-0.9-5.4l3.9-3.8l-5.4-0.8l-2.4-4.9l-2.4,4.9L914.3,733.5z"/>
            </g>
          </g>
        </g>
        <g>
          <g>
            <g>
              <polygon class="st8" points="951.2,726.7 953.9,732.3 960,733.2 955.6,737.5 956.6,743.6 951.2,740.7 945.7,743.6 
                946.7,737.5 942.3,733.2 948.4,732.3 								"/>
            </g>
          </g>
          <g>
            <g>
              <path class="st2" d="M957.3,744.5l-6.1-3.2l-6.1,3.2l1.2-6.8l-5-4.8l6.9-1l3.1-6.2l3.1,6.2l6.9,1l-5,4.8L957.3,744.5z
                  M951.2,740.1l4.8,2.5l-0.9-5.4l3.9-3.8l-5.4-0.8l-2.4-4.9l-2.4,4.9l-5.4,0.8l3.9,3.8l-0.9,5.4L951.2,740.1z"/>
            </g>
          </g>
        </g>
        <g>
          <g>
            <g>
              <path class="st2" d="M896.3,476.8c4.3,2,22,8.7,46.4-0.1c0.5-0.2,1,0.2,1,0.7v35.5c0,0.4-0.3,0.7-0.7,0.7h-46.8
                c-0.4,0-0.7-0.3-0.7-0.7l-0.2-35.3C895.3,476.9,895.8,476.6,896.3,476.8z"/>
            </g>
          </g>
          <g>
            <g>
              <path class="st2" d="M943,514h-46.8c-0.7,0-1.2-0.5-1.2-1.2l-0.2-35.3c0-0.4,0.2-0.8,0.6-1c0.3-0.2,0.8-0.3,1.2-0.1
                c4.7,2.2,22,8.5,46.1-0.2c0.4-0.1,0.8-0.1,1.1,0.1c0.3,0.2,0.5,0.6,0.5,1v35.5C944.2,513.5,943.7,514,943,514z M896,477.2
                c0,0-0.1,0-0.1,0c0,0-0.1,0.1-0.1,0.2l0.2,35.3c0,0.1,0.1,0.2,0.2,0.2H943c0.1,0,0.2-0.1,0.2-0.2v-35.5
                c0-0.1-0.1-0.1-0.1-0.2c0,0-0.1-0.1-0.2,0C918.5,485.9,900.9,479.4,896,477.2L896,477.2C896.1,477.2,896,477.2,896,477.2z"
                />
            </g>
          </g>
        </g>
        <g>
          <g>
            <g>
              <path class="st5" d="M949.4,564.1c0,0,9.3,10.4,17.2,37.9h-94.2c7.9-27.5,17.2-37.9,17.2-37.9l0-0.1l-0.6-4.6l-4.6-34.9
                l-9.4,19.1l-28.2-12.9l16.4-32.7c12.4-27,33.1-21.4,33.1-21.4c3.2,20.2,11.6,26.2,18,27.8c1.2,0.3,2.5,0.4,3.7,0.4h3.2
                c1.3,0,2.5-0.1,3.7-0.4c6.4-1.6,14.8-7.6,18-27.8c0,0,20.7-5.6,33.1,21.4l16.4,32.7L964,543.5l-9.4-19.1l-4.6,34.9l-0.6,4.5
                L949.4,564.1z"/>
            </g>
          </g>
          <g>
            <g>
              <path class="st2" d="M967.2,602.5h-95.5l0.2-0.6c7.3-25.4,15.9-36.4,17.2-37.9l-5-37.8l-8.9,18l-29.2-13.3l16.6-33.2
                c12.4-27.1,33.4-21.7,33.7-21.7l0.3,0.1l0.1,0.3c3.1,19.9,11.3,25.9,17.6,27.4c1.1,0.3,2.3,0.4,3.6,0.4h3.2
                c1.3,0,2.5-0.1,3.6-0.4c6.3-1.5,14.4-7.5,17.6-27.4l0.1-0.3l0.3-0.1c0.2-0.1,21.2-5.4,33.7,21.7l16.6,33.2l-29.2,13.3
                l-8.9-18l-5,37.8c1.2,1.5,9.9,12.5,17.2,38L967.2,602.5z M873.1,601.5h92.8c-7.7-26.6-16.8-37-16.9-37.1l-0.1-0.2l0-0.5
                l5.4-41l9.9,20.1l27.3-12.5l-16.1-32.2c-11.3-24.5-29.6-21.8-32.2-21.2c-3.3,20.1-11.7,26.3-18.3,27.9
                c-1.2,0.3-2.5,0.4-3.8,0.4h-3.2c-1.4,0-2.7-0.1-3.8-0.4c-6.5-1.6-15-7.7-18.3-27.9c-2.6-0.5-20.9-3.3-32.2,21.2l-16.1,32.3
                l27.3,12.5l9.9-20.1l5.4,41.5l-0.2,0.2C889.9,564.5,880.8,574.9,873.1,601.5z"/>
            </g>
          </g>
        </g>
        <g>
          <g>
            <g>
              <path class="st11" d="M950,559.4l-0.6,4.5H909c-0.4,2.9-0.9,7.8-1.1,10.1c0,0.4-0.2,0.7-0.5,0.9c-0.3,0.2-0.6,0.4-1,0.4
                c-0.8,0-1.4-0.6-1.5-1.4c-0.1-3.8,0.2-9.4,0.2-9.4c-2.4,3.8-3.7,14.3-4.1,18c0,0.4-0.2,0.7-0.5,1c-0.3,0.2-0.6,0.4-1,0.4
                c-0.8,0-1.4-0.6-1.5-1.4c-0.9-12.7,2.8-18.4,2.8-18.4h-11.3l-0.6-4.6H950z"/>
            </g>
          </g>
          <g>
            <g>
              <path class="st2" d="M899.6,584.3c-1,0-1.9-0.8-2-1.8c-0.7-10.2,1.5-16,2.5-18h-10.9l-0.7-5.6h62.1l-0.7,5.5h-40.4
                c-0.4,3.2-0.9,8.1-1,9.6c-0.1,0.5-0.3,0.9-0.6,1.3c-0.4,0.3-0.8,0.5-1.3,0.5c-1.1,0-1.9-0.8-2-1.9c-0.1-2.2,0-4.9,0.1-6.9
                c-1.7,4.7-2.7,12.9-3,15.6c-0.1,0.5-0.3,0.9-0.6,1.3C900.5,584.1,900.1,584.3,899.6,584.3z M890.1,563.4h11.8l-0.5,0.8
                c0,0.1-3.6,5.8-2.8,18.1c0,0.5,0.5,0.9,1,0.9c0.2,0,0.5-0.1,0.7-0.3c0.2-0.2,0.3-0.4,0.3-0.6c0.4-4.2,1.7-14.3,4.2-18.2
                l1-1.6l-0.1,1.9c0,0.1-0.3,5.5-0.2,9.3c0,0.5,0.4,0.9,1,0.9c0.2,0,0.5-0.1,0.6-0.2c0.2-0.2,0.3-0.4,0.3-0.6
                c0.2-1.6,0.7-6.9,1.1-10.1l0.1-0.4H949l0.5-3.5h-59.8L890.1,563.4z"/>
            </g>
          </g>
        </g>
        <g>
          <g>
            <g>
              <g>
                <circle class="st11" cx="1035.8" cy="441.3" r="24.3"/>
              </g>
            </g>
            <g>
              <g>
                <path class="st2" d="M1035.8,466c-13.6,0-24.8-11.1-24.8-24.8s11.1-24.8,24.8-24.8s24.8,11.1,24.8,24.8
                  S1049.4,466,1035.8,466z M1035.8,417.5c-13.1,0-23.8,10.7-23.8,23.8s10.7,23.8,23.8,23.8s23.8-10.7,23.8-23.8
                  S1048.8,417.5,1035.8,417.5z"/>
              </g>
            </g>
          </g>
          <g>
            <g>
              <g>
                <path class="st5" d="M1042.7,429.1c-3.3,0-6.1,2.2-7,5.2c-0.9-3-3.7-5.2-7-5.2c-4,0-7.3,3.3-7.3,7.3c0,1.3,0.4,2.5,1,3.6h0
                  c0.3,0.5,0.6,0.9,1,1.3l12,16.3l12.4-16c0.5-0.5,0.9-1,1.2-1.6h0c0.6-1.1,1-2.3,1-3.6
                  C1050,432.4,1046.7,429.1,1042.7,429.1z"/>
              </g>
            </g>
            <g>
              <g>
                <path class="st2" d="M1035.4,458.4l-12.4-16.8c-0.4-0.4-0.7-0.9-1-1.4c-0.7-1.2-1-2.5-1-3.9c0-4.3,3.5-7.8,7.8-7.8
                  c3,0,5.7,1.7,7,4.3c1.3-2.6,4-4.3,7-4.3c4.3,0,7.8,3.5,7.8,7.8c0,1.3-0.4,2.7-1,3.9c-0.4,0.6-0.8,1.2-1.3,1.7L1035.4,458.4
                  z M1028.8,429.6c-3.7,0-6.8,3-6.8,6.8c0,1.2,0.3,2.3,0.9,3.4c0.3,0.4,0.6,0.8,0.9,1.2l11.6,15.8l12-15.5
                  c0.5-0.5,0.9-1,1.2-1.5c0.6-1,0.9-2.2,0.9-3.4c0-3.7-3-6.8-6.8-6.8c-3,0-5.6,1.9-6.5,4.8l-0.5,1.6l-0.5-1.6
                  C1034.4,431.6,1031.8,429.6,1028.8,429.6z"/>
              </g>
            </g>
          </g>
        </g>
      </g>
      <g>
        <g>
          <g>
            <g>
              <path class="st11" d="M760.5,451.3v296.5c0,5.5-4.4,9.9-9.9,9.9H536.7c-5.5,0-9.9-4.4-9.9-9.9V451.3c0-5.5,4.4-9.9,9.9-9.9
                h213.9C756.1,441.4,760.5,445.8,760.5,451.3z"/>
            </g>
          </g>
          <g>
            <g>
              <path class="st2" d="M750.6,758.1H536.7c-5.7,0-10.4-4.7-10.4-10.4V451.3c0-5.7,4.7-10.4,10.4-10.4h213.9
                c5.7,0,10.4,4.7,10.4,10.4v296.5C761,753.5,756.4,758.1,750.6,758.1z M536.7,441.9c-5.2,0-9.4,4.2-9.4,9.4v296.5
                c0,5.2,4.2,9.4,9.4,9.4h213.9c5.2,0,9.4-4.2,9.4-9.4V451.3c0-5.2-4.2-9.4-9.4-9.4H536.7z"/>
            </g>
          </g>
        </g>
        <g>
          <g>
            <g>
              <path class="st11" d="M760.5,451.3v182.5H526.8V451.3c0-5.5,4.4-9.9,9.9-9.9h213.9C756.1,441.4,760.5,445.8,760.5,451.3z"/>
            </g>
          </g>
          <g>
            <g>
              <path class="st2" d="M761,634.3H526.3v-183c0-5.7,4.7-10.4,10.4-10.4h213.9c5.7,0,10.4,4.7,10.4,10.4V634.3z M527.3,633.3
                H760v-182c0-5.2-4.2-9.4-9.4-9.4H536.7c-5.2,0-9.4,4.2-9.4,9.4V633.3z"/>
            </g>
          </g>
        </g>
        <g>
          <g>
            <g>
              <rect x="548.2" y="653" class="st11" width="190.5" height="11.7"/>
            </g>
          </g>
          <g>
            <g>
              <path class="st2" d="M739.2,665.2H547.7v-12.7h191.5V665.2z M548.7,664.2h189.5v-10.7H548.7V664.2z"/>
            </g>
          </g>
        </g>
        <g>
          <g>
            <g>
              <rect x="548.2" y="678.3" class="st11" width="190.5" height="11.7"/>
            </g>
          </g>
          <g>
            <g>
              <path class="st2" d="M739.2,690.6H547.7v-12.7h191.5V690.6z M548.7,689.6h189.5v-10.7H548.7V689.6z"/>
            </g>
          </g>
        </g>
        <g>
          <g>
            <g>
              <rect x="548.2" y="703.7" class="st6" width="101.8" height="11.7"/>
            </g>
          </g>
          <g>
            <g>
              <path class="st2" d="M650.5,715.9H547.7v-12.7h102.8V715.9z M548.7,714.9h100.8v-10.7H548.7V714.9z"/>
            </g>
          </g>
        </g>
        <g>
          <g>
            <g>
              <polygon class="st8" points="558.7,726.7 561.5,732.3 567.6,733.2 563.2,737.5 564.2,743.6 558.7,740.7 553.3,743.6 
                554.3,737.5 549.9,733.2 556,732.3 								"/>
            </g>
          </g>
          <g>
            <g>
              <path class="st2" d="M564.9,744.5l-6.1-3.2l-6.1,3.2l1.2-6.8l-5-4.8l6.9-1l3.1-6.2l3.1,6.2l6.9,1l-5,4.8L564.9,744.5z
                  M558.7,740.1l4.8,2.5l-0.9-5.4l3.9-3.8l-5.4-0.8l-2.4-4.9l-2.4,4.9l-5.4,0.8l3.9,3.8l-0.9,5.4L558.7,740.1z"/>
            </g>
          </g>
        </g>
        <g>
          <g>
            <g>
              <polygon class="st8" points="587.1,726.7 589.8,732.3 596,733.2 591.5,737.5 592.6,743.6 587.1,740.7 581.6,743.6 
                582.7,737.5 578.2,733.2 584.4,732.3 								"/>
            </g>
          </g>
          <g>
            <g>
              <path class="st2" d="M593.2,744.5l-6.1-3.2l-6.1,3.2l1.2-6.8l-5-4.8l6.9-1l3.1-6.2l3.1,6.2l6.9,1l-5,4.8L593.2,744.5z
                  M587.1,740.1l4.8,2.5l-0.9-5.4l3.9-3.8l-5.4-0.8l-2.4-4.9l-2.4,4.9l-5.4,0.8l3.9,3.8l-0.9,5.4L587.1,740.1z"/>
            </g>
          </g>
        </g>
        <g>
          <g>
            <g>
              <polygon class="st8" points="616.6,726.7 619.3,732.3 625.4,733.2 621,737.5 622.1,743.6 616.6,740.7 611.1,743.6 
                612.2,737.5 607.7,733.2 613.8,732.3 								"/>
            </g>
          </g>
          <g>
            <g>
              <path class="st2" d="M622.7,744.5l-6.1-3.2l-6.1,3.2l1.2-6.8l-5-4.8l6.9-1l3.1-6.2l3.1,6.2l6.9,1l-5,4.8L622.7,744.5z
                  M616.6,740.1l4.8,2.5l-0.9-5.4l3.9-3.8l-5.4-0.8l-2.4-4.9l-2.4,4.9l-5.4,0.8l3.9,3.8l-0.9,5.4L616.6,740.1z"/>
            </g>
          </g>
        </g>
        <g>
          <g>
            <g>
              <polygon class="st8" points="646.1,726.7 648.8,732.3 654.9,733.2 650.5,737.5 651.6,743.6 646.1,740.7 640.6,743.6 
                641.6,737.5 637.2,733.2 643.3,732.3 								"/>
            </g>
          </g>
          <g>
            <g>
              <path class="st2" d="M652.2,744.5l-6.1-3.2l-6.1,3.2l1.2-6.8l-5-4.8l6.9-1l3.1-6.2l3.1,6.2l6.9,1l-5,4.8L652.2,744.5z
                  M638.3,733.5l3.9,3.8l-0.9,5.4l4.8-2.5l4.8,2.5l-0.9-5.4l3.9-3.8l-5.4-0.8l-2.4-4.9l-2.4,4.9L638.3,733.5z"/>
            </g>
          </g>
        </g>
        <g>
          <g>
            <g>
              <polygon class="st8" points="675.2,726.7 677.9,732.3 684,733.2 679.6,737.5 680.6,743.6 675.2,740.7 669.7,743.6 
                670.7,737.5 666.3,733.2 672.4,732.3 								"/>
            </g>
          </g>
          <g>
            <g>
              <path class="st2" d="M681.3,744.5l-6.1-3.2l-6.1,3.2l1.2-6.8l-5-4.8l6.9-1l3.1-6.2l3.1,6.2l6.9,1l-5,4.8L681.3,744.5z
                  M675.2,740.1l4.8,2.5l-0.9-5.4l3.9-3.8l-5.4-0.8l-2.4-4.9l-2.4,4.9l-5.4,0.8l3.9,3.8l-0.9,5.4L675.2,740.1z"/>
            </g>
          </g>
        </g>
        <g>
          <g>
            <g>
              <polygon class="st2" points="690.6,477.2 681.4,477.2 681.4,477 596.3,477 556,496.7 567.6,529.3 596.1,517.7 632.8,517.3 
                690.7,517.9 719.2,529.5 730.8,496.9 								"/>
            </g>
          </g>
          <g>
            <g>
              <path class="st2" d="M719.5,530.1l-28.9-11.8l-57.9-0.6l-36.6,0.4l-28.9,11.8l-11.9-33.5l40.8-19.9h85.7l0,0.2h8.8
                l40.8,19.9L719.5,530.1z M632.8,516.8l58.1,0.6l28.1,11.4l11.3-31.7l-39.8-19.4h-9.6l0-0.2h-84.5l-39.8,19.4l11.3,31.7
                l28.1-11.4L632.8,516.8z"/>
            </g>
          </g>
        </g>
        <g>
          <g>
            <g>
              <path class="st6" d="M690.6,477v126h-94.5V477h19.8c1.2,14.1,13,25.2,27.5,25.2c14.4,0,26.2-11.1,27.5-25.2H690.6z"/>
            </g>
          </g>
          <g>
            <g>
              <path class="st2" d="M691.1,603.5h-95.5v-127h20.8l0,0.5c1.2,13.9,13,24.7,27,24.7c13.9,0,25.8-10.9,27-24.7l0-0.5h20.8
                V603.5z M596.6,602.5h93.5v-125h-18.8c-1.5,14.1-13.6,25.2-27.9,25.2c-14.3,0-26.5-11-27.9-25.2h-18.9V602.5z"/>
            </g>
          </g>
        </g>
        <g>
          <g>
            <g>
              <path class="st7" d="M677,477c-0.8,17.9-15.6,32.2-33.7,32.2c-18.1,0-32.9-14.3-33.7-32.2h6.2c1.2,14.1,13,25.2,27.5,25.2
                c14.4,0,26.2-11.1,27.5-25.2H677z"/>
            </g>
          </g>
          <g>
            <g>
              <path class="st2" d="M643.4,509.6c-18.3,0-33.3-14.3-34.2-32.6l0-0.5h7.2l0,0.5c1.2,13.9,13,24.7,27,24.7
                c13.9,0,25.8-10.9,27-24.7l0-0.5h7.2l0,0.5C676.7,495.3,661.7,509.6,643.4,509.6z M610.2,477.5
                c1.1,17.5,15.5,31.2,33.1,31.2c17.6,0,32.1-13.6,33.1-31.2h-5.2c-1.5,14.1-13.6,25.2-27.9,25.2c-14.3,0-26.5-11-27.9-25.2
                H610.2z"/>
            </g>
          </g>
        </g>
        <g>
          <g>
            <g>
              <rect x="596.1" y="557.7" class="st11" width="94.5" height="9.6"/>
            </g>
          </g>
          <g>
            <g>
              <path class="st2" d="M691.1,567.8h-95.5v-10.6h95.5V567.8z M596.6,566.8h93.5v-8.6h-93.5V566.8z"/>
            </g>
          </g>
        </g>
        <g>
          <g>
            <g>
              <rect x="596.1" y="578.3" class="st11" width="94.5" height="9.6"/>
            </g>
          </g>
          <g>
            <g>
              <path class="st2" d="M691.1,588.4h-95.5v-10.6h95.5V588.4z M596.6,587.4h93.5v-8.6h-93.5V587.4z"/>
            </g>
          </g>
        </g>
        <g>
          <g>
            <g>
              <g>
                <circle class="st11" cx="760.8" cy="441.3" r="24.3"/>
              </g>
            </g>
            <g>
              <g>
                <path class="st2" d="M760.8,466c-13.6,0-24.8-11.1-24.8-24.8s11.1-24.8,24.8-24.8s24.8,11.1,24.8,24.8S774.4,466,760.8,466
                  z M760.8,417.5c-13.1,0-23.8,10.7-23.8,23.8s10.7,23.8,23.8,23.8s23.8-10.7,23.8-23.8S773.8,417.5,760.8,417.5z"/>
              </g>
            </g>
          </g>
          <g>
            <g>
              <g>
                <path class="st5" d="M767.7,429.1c-3.3,0-6.1,2.2-7,5.2c-0.9-3-3.7-5.2-7-5.2c-4,0-7.3,3.3-7.3,7.3c0,1.3,0.4,2.5,1,3.6h0
                  c0.3,0.5,0.6,0.9,1,1.3l12,16.3l12.4-16c0.5-0.5,0.9-1,1.2-1.6h0c0.6-1.1,1-2.3,1-3.6C775,432.4,771.7,429.1,767.7,429.1z"
                  />
              </g>
            </g>
            <g>
              <g>
                <path class="st2" d="M760.4,458.4l-12.4-16.8c-0.4-0.4-0.7-0.9-1-1.4c-0.7-1.2-1-2.5-1-3.9c0-4.3,3.5-7.8,7.8-7.8
                  c3,0,5.7,1.7,7,4.3c1.3-2.6,4-4.3,7-4.3c4.3,0,7.8,3.5,7.8,7.8c0,1.3-0.4,2.7-1,3.9c-0.4,0.6-0.8,1.2-1.3,1.7L760.4,458.4z
                    M753.8,429.6c-3.7,0-6.8,3-6.8,6.8c0,1.2,0.3,2.3,0.9,3.4c0.3,0.4,0.6,0.8,0.9,1.2l11.6,15.8l12-15.5
                  c0.5-0.5,0.9-1,1.2-1.5c0.6-1,0.9-2.2,0.9-3.4c0-3.7-3-6.8-6.8-6.8c-3,0-5.6,1.9-6.5,4.8l-0.5,1.6l-0.5-1.6
                  C759.4,431.6,756.8,429.6,753.8,429.6z"/>
              </g>
            </g>
          </g>
        </g>
      </g>
    </g>
    <g id="Discount_Icon">
      <g>
        <g>
          <circle class="st2" cx="426.7" cy="606.7" r="30.3"/>
        </g>
      </g>
      <g>
        <g>
          <g>
            <circle class="st8" cx="422.3" cy="606.7" r="30.3"/>
          </g>
        </g>
        <g>
          <g>
            <path class="st2" d="M422.3,637.5c-17,0-30.8-13.8-30.8-30.8s13.8-30.8,30.8-30.8s30.8,13.8,30.8,30.8
              S439.3,637.5,422.3,637.5z M422.3,576.8c-16.4,0-29.8,13.4-29.8,29.8c0,16.4,13.4,29.8,29.8,29.8c16.4,0,29.8-13.4,29.8-29.8
              C452.1,590.2,438.7,576.8,422.3,576.8z"/>
          </g>
        </g>
      </g>
      <g>
        <g>
          <g>
            <path class="st2" d="M408.7,605.6c-1.2-1.4-1.8-3.2-1.8-5.4c0-2.2,0.6-4,1.8-5.4c1.2-1.4,2.7-2,4.7-2c1.9,0,3.5,0.7,4.7,2
              c1.2,1.4,1.8,3.1,1.8,5.4c0,2.2-0.6,4-1.8,5.4c-1.2,1.4-2.8,2-4.7,2C411.5,607.7,409.9,607,408.7,605.6z M415.9,603.8
              c0.6-0.8,0.9-2,0.9-3.5c0-1.5-0.3-2.7-0.9-3.5c-0.6-0.8-1.4-1.2-2.5-1.2c-1,0-1.8,0.4-2.4,1.3c-0.6,0.8-0.9,2-0.9,3.5
              s0.3,2.6,0.9,3.5c0.6,0.8,1.4,1.3,2.4,1.3C414.5,605,415.3,604.6,415.9,603.8z M429.6,593.1h3.8l-18.5,27h-3.8L429.6,593.1z
                M426.5,618.4c-1.2-1.4-1.8-3.2-1.8-5.4c0-2.2,0.6-4,1.8-5.4c1.2-1.4,2.7-2,4.7-2c1.9,0,3.5,0.7,4.7,2
              c1.2,1.4,1.8,3.2,1.8,5.4c0,2.2-0.6,4-1.8,5.4c-1.2,1.4-2.8,2-4.7,2C429.2,620.4,427.7,619.8,426.5,618.4z M433.6,616.5
              c0.6-0.8,0.9-2,0.9-3.5c0-1.5-0.3-2.6-0.9-3.5c-0.6-0.8-1.4-1.3-2.4-1.3c-1,0-1.8,0.4-2.4,1.2c-0.6,0.8-0.9,2-0.9,3.5
              c0,1.5,0.3,2.7,0.9,3.5c0.6,0.8,1.4,1.2,2.4,1.2C432.2,617.7,433,617.3,433.6,616.5z"/>
          </g>
        </g>
      </g>
    </g>
    <g id="Package_1_">
      <g>
        <g>
          <g>
            <polygon class="st5" points="1053.6,757.4 1046.4,861.1 1117.6,861.1 1117.6,757.4 							"/>
          </g>
        </g>
        <g>
          <g>
            <path class="st2" d="M1118.1,861.6h-72.3l7.2-104.7h65.1V861.6z M1047,860.6h70.2V757.9H1054L1047,860.6z"/>
          </g>
        </g>
      </g>
      <g>
        <g>
          <g>
            <polygon class="st2" points="1114.8,757.4 1109.7,861.1 1138,861.1 1132.5,757.4 							"/>
          </g>
        </g>
        <g>
          <g>
            <path class="st2" d="M1138.6,861.6h-29.4l0-0.5l5.2-104.2h18.6l0,0.5L1138.6,861.6z M1110.2,860.6h27.3l-5.5-102.8h-16.7
              L1110.2,860.6z"/>
          </g>
        </g>
      </g>
      <g>
        <g>
          <path class="st2" d="M1074.8,787c-1.9,0-4.8-0.4-7.2-2.5c-2.2-2-3.5-5.1-3.7-9.2c-0.3-4.8,1-18,5.5-20.5
            c1.4-0.7,2.6-0.9,3.6-0.5c1.7,0.7,2.3,2.8,2.4,2.9l-1,0.3c0,0-0.5-1.7-1.8-2.2c-0.8-0.3-1.7-0.2-2.8,0.4
            c-3.6,2-5.3,13.8-5,19.5c0.2,3.8,1.3,6.7,3.3,8.5c2.4,2.2,5.5,2.3,7.2,2.2c13.5-0.7,15.8-12.1,16.1-14.4
            c0.2-1.2,0.3-2.2,0.5-3.3c1.5-10.8,2.1-15.3,6.9-14.8c3.6,0.4,4.9,3.5,5,3.7l-0.9,0.4c0-0.1-1.1-2.7-4.2-3
            c-3.6-0.4-4.2,2.8-5.8,13.9c-0.1,1-0.3,2.1-0.5,3.3c-0.3,2.4-2.8,14.5-17.1,15.2C1075.3,787,1075.1,787,1074.8,787z"/>
        </g>
      </g>
      <g>
        <g>
          <g>
            <polygon class="st6" points="1039.5,800.3 1093.1,800.3 1089.1,861.1 1024,861.1 							"/>
          </g>
        </g>
        <g>
          <g>
            <path class="st2" d="M1089.5,861.6h-66.2l15.8-61.8h54.5L1089.5,861.6z M1024.6,860.6h64l4-59.8h-52.7L1024.6,860.6z"/>
          </g>
        </g>
      </g>
      <g>
        <g>
          <g>
            <polygon class="st2" points="1098.9,800.2 1091.2,800.2 1076.2,861.1 1097.3,861.1 							"/>
          </g>
        </g>
        <g>
          <g>
            <path class="st2" d="M1097.8,861.6h-22.2l15.3-61.9h8.6L1097.8,861.6z M1076.8,860.6h20l1.6-59.9h-6.8L1076.8,860.6z"/>
          </g>
        </g>
      </g>
      <g>
        <g>
          <path class="st2" d="M1057.3,821.1c-9.4,0-9.7-7.4-9.8-11.3c0-0.3,0-0.6,0-0.9c-0.5-9.3,2.5-11.1,3.8-11.4
            c4.1-1,5.4,2.8,5.4,2.8l-0.9,0.3c0-0.1-1.1-3-4.2-2.2c-0.8,0.2-3.6,1.6-3.1,10.4c0,0.3,0,0.6,0,0.9c0.1,3.9,0.4,10.4,8.8,10.4
            c0,0,0.1,0,0.1,0c2.8,0,6.8-0.8,9.8-7.7l5.2-12.3c0.1-0.2,1.9-3.9,5.2-3.2c2.8,0.6,3.4,3.2,3.5,3.3l-1,0.2
            c0-0.1-0.5-2.1-2.7-2.6c-2.5-0.5-4,2.6-4.1,2.7l-5.2,12.3c-2.4,5.5-6,8.2-10.8,8.3C1057.4,821.1,1057.4,821.1,1057.3,821.1z"
            />
        </g>
      </g>
      <g>
        <g>
          <polygon class="st7" points="1138,861.8 1123.4,844.2 1123.4,757.4 1124.4,757.4 1124.4,843.9 1138.8,861.2 						"/>
        </g>
      </g>
      <g>
        <g>
          
            <rect x="1106" y="851.9" transform="matrix(0.6508 -0.7593 0.7593 0.6508 -257.121 1145.7147)" class="st7" width="21.9" height="1"/>
        </g>
      </g>
      <g>
        <g>
          <polygon class="st7" points="1096.7,861 1088.7,848.1 1088.7,848 1094.2,800.1 1095.2,800.2 1089.7,847.9 1097.5,860.4 						
            "/>
        </g>
      </g>
      <g>
        <g>
          
            <rect x="1073.9" y="853.9" transform="matrix(0.7071 -0.7071 0.7071 0.7071 -286.966 1015.9221)" class="st7" width="18" height="1"/>
        </g>
      </g>
    </g>
    <g id="Package_Box_1_">
      <g>
        <g>
          <rect x="1031.8" y="861.6" class="st2" width="144.4" height="112.4"/>
        </g>
      </g>
      <g>
        <g>
          <g>
            <rect x="1007" y="861.6" class="st8" width="132" height="112.4"/>
          </g>
        </g>
        <g>
          <g>
            <path class="st2" d="M1139.5,974.5h-133V861.1h133V974.5z M1007.5,973.5h131V862.1h-131V973.5z"/>
          </g>
        </g>
      </g>
      <g>
        <g>
          <polygon class="st2" points="1052.2,861.6 1052.2,889.6 1060.4,885 1066.8,889.3 1074.5,885 1081.5,889.6 1081.5,861.6 						
            "/>
        </g>
      </g>
      <g>
        <g>
          <rect x="1081.5" y="916.6" class="st2" width="30.5" height="2"/>
        </g>
      </g>
      <g>
        <g>
          <rect x="1081.5" y="928.5" class="st2" width="30.5" height="2"/>
        </g>
      </g>
      <g>
        <g>
          <rect x="1081.5" y="940.4" class="st2" width="30.5" height="2"/>
        </g>
      </g>
      <g>
        <g>
          <g>
            <rect x="1023.3" y="914.3" class="st11" width="49.4" height="30.8"/>
          </g>
        </g>
        <g>
          <g>
            <path class="st2" d="M1073.1,945.6h-50.4v-31.8h50.4V945.6z M1023.8,944.6h48.4v-29.8h-48.4V944.6z"/>
          </g>
        </g>
      </g>
    </g>
    <g id="Shopping_cart">
      <g>
        <g>
          <path class="st2" d="M1234.8,788.1l-13,43l-248.7,12l26.1,132.8h179.5V987h-152v3.2h151.7c25.3,8.1,22.3,32.4,21.2,38.2h-196
            v3.2h198.6l0.3-1.2c0.1-0.3,7.5-31.4-20.6-42.3v-13.5l55.3-183.2h52.1v-3.2H1234.8z M989.1,908.2l28.5-0.3l3.3,28.8h-26.1
            L989.1,908.2z M1125.3,936.7H1093v-29.4l33.8-0.3L1125.3,936.7z M1130,907l32.3-0.3l-3,30.1h-30.9L1130,907z M1089.8,907.3
            v29.4h-32.2l-1.5-29.1L1089.8,907.3z M1056,904.4l-1.7-32.8l35.5-0.3v32.9L1056,904.4z M1093,904.1v-32.9l35.7-0.3l-1.7,32.9
            L1093,904.1z M1093,868.1v-27.5l37.5-1.8l-1.5,29L1093,868.1z M1089.8,868.1l-35.7,0.3l-1.3-26l37-1.8V868.1z M1051,868.4
            l-34.6,0.3l-2.8-24.4l36.1-1.7L1051,868.4z M1051.1,871.6l1.7,32.8l-32.4,0.3l-3.7-32.8L1051.1,871.6z M1017.2,904.8
            l-28.7,0.3l-6.4-32.8l31.4-0.3L1017.2,904.8z M1020.8,907.9l32.2-0.3l1.5,29.1h-30.4L1020.8,907.9z M1054.7,939.9l1.7,32.8
            h-28.2l-3.7-32.8H1054.7z M1057.8,939.9h32v32.8h-30.3L1057.8,939.9z M1093,939.9h32.1l-1.7,32.8H1093V939.9z M1128.3,939.9
            h30.7l-3.3,32.8h-29.2L1128.3,939.9z M1162.2,939.9h26.8l-9.9,32.8H1159L1162.2,939.9z M1162.6,936.7l3-30.1l33.6-0.3
            l-9.2,30.4H1162.6z M1200.1,903.2l-34.3,0.3l3.3-32.9l40.9-0.4L1200.1,903.2z M1162.7,903.5l-32.4,0.3l1.7-32.9l34-0.3
            L1162.7,903.5z M1132.1,867.7l1.5-29.1l35.6-1.7l-3,30.5L1132.1,867.7z M1010.4,844.5l2.8,24.3l-31.7,0.3l-4.5-23
            L1010.4,844.5z M995.4,939.9h25.9l3.7,32.8h-23.2L995.4,939.9z M1211,867l-41.6,0.4l3-30.7l48.4-2.3L1211,867z"/>
        </g>
      </g>
      <g>
        <g>
          <path class="st2" d="M1033.1,1032c-9,0-16.3,7.3-16.3,16.3s7.3,16.3,16.3,16.3c9,0,16.3-7.3,16.3-16.3
            S1042.1,1032,1033.1,1032z M1033.1,1059c-5.9,0-10.7-4.8-10.7-10.7s4.8-10.7,10.7-10.7c5.9,0,10.7,4.8,10.7,10.7
            S1039,1059,1033.1,1059z"/>
        </g>
      </g>
      <g>
        <g>
          <path class="st2" d="M1178.3,1032.4c-9,0-16.3,7.3-16.3,16.3s7.3,16.3,16.3,16.3c9,0,16.3-7.3,16.3-16.3
            S1187.3,1032.4,1178.3,1032.4z M1178.3,1059.4c-5.9,0-10.7-4.8-10.7-10.7s4.8-10.7,10.7-10.7c5.9,0,10.7,4.8,10.7,10.7
            S1184.2,1059.4,1178.3,1059.4z"/>
        </g>
      </g>
    </g>
    <g id="Credit_card">
      <g>
        <g>
          <g>
            <path class="st11" d="M1543,337.2v118.5c0,4.8-3.9,8.7-8.7,8.7h-178.6c-4.8,0-8.7-3.9-8.7-8.7V337.2c0-4.8,3.9-8.7,8.7-8.7
              h178.6C1539.1,328.5,1543,332.4,1543,337.2z"/>
          </g>
        </g>
        <g>
          <g>
            <path class="st2" d="M1534.3,464.9h-178.6c-5.1,0-9.2-4.1-9.2-9.2V337.2c0-5.1,4.1-9.2,9.2-9.2h178.6c5.1,0,9.2,4.1,9.2,9.2
              v118.5C1543.5,460.8,1539.4,464.9,1534.3,464.9z M1355.7,329c-4.5,0-8.2,3.7-8.2,8.2v118.5c0,4.5,3.7,8.2,8.2,8.2h178.6
              c4.5,0,8.2-3.7,8.2-8.2V337.2c0-4.5-3.7-8.2-8.2-8.2H1355.7z"/>
          </g>
        </g>
      </g>
      <g>
        <g>
          <g>
            <rect x="1347" y="351.9" class="st8" width="196" height="22.9"/>
          </g>
        </g>
        <g>
          <g>
            <path class="st2" d="M1543.5,375.3h-197v-23.9h197V375.3z M1347.5,374.3h195v-21.9h-195V374.3z"/>
          </g>
        </g>
      </g>
      <g>
        <g>
          <rect x="1347" y="370.4" class="st2" width="196" height="26.3"/>
        </g>
      </g>
      <g>
        <g>
          <g>
            <path class="st11" d="M1357.8,383.3L1357.8,383.3c0,2.2,1.8,4,4,4h39.5c2.2,0,4-1.8,4-4l0,0c0-2.2-1.8-4-4-4h-39.5
              C1359.6,379.3,1357.8,381.1,1357.8,383.3z"/>
          </g>
        </g>
        <g>
          <g>
            <path d="M1401.3,387.7h-39.5c-2.5,0-4.5-2-4.5-4.5s2-4.5,4.5-4.5h39.5c2.5,0,4.5,2,4.5,4.5S1403.7,387.7,1401.3,387.7z
                M1361.8,379.8c-1.9,0-3.5,1.5-3.5,3.5c0,1.9,1.5,3.5,3.5,3.5h39.5c1.9,0,3.5-1.5,3.5-3.5c0-1.9-1.5-3.5-3.5-3.5H1361.8z"/>
          </g>
        </g>
      </g>
      <g>
        <g>
          <g>
            <path class="st11" d="M1421.6,383.3L1421.6,383.3c0,2.2,1.8,4,4,4h39.5c2.2,0,4-1.8,4-4l0,0c0-2.2-1.8-4-4-4h-39.5
              C1423.3,379.3,1421.6,381.1,1421.6,383.3z"/>
          </g>
        </g>
        <g>
          <g>
            <path d="M1465,387.7h-39.5c-2.5,0-4.5-2-4.5-4.5s2-4.5,4.5-4.5h39.5c2.5,0,4.5,2,4.5,4.5S1467.5,387.7,1465,387.7z
                M1425.5,379.8c-1.9,0-3.5,1.5-3.5,3.5c0,1.9,1.5,3.5,3.5,3.5h39.5c1.9,0,3.5-1.5,3.5-3.5c0-1.9-1.5-3.5-3.5-3.5H1425.5z"/>
          </g>
        </g>
      </g>
      <g>
        <g>
          <g>
            <circle class="st11" cx="1489.3" cy="384.9" r="4"/>
          </g>
        </g>
        <g>
          <g>
            <path d="M1489.3,389.3c-2.5,0-4.5-2-4.5-4.5s2-4.5,4.5-4.5s4.5,2,4.5,4.5S1491.7,389.3,1489.3,389.3z M1489.3,381.4
              c-1.9,0-3.5,1.5-3.5,3.5s1.5,3.5,3.5,3.5c1.9,0,3.5-1.5,3.5-3.5S1491.2,381.4,1489.3,381.4z"/>
          </g>
        </g>
      </g>
      <g>
        <g>
          <g>
            <circle class="st11" cx="1501.9" cy="384.9" r="4"/>
          </g>
        </g>
        <g>
          <g>
            <path d="M1501.9,389.3c-2.5,0-4.5-2-4.5-4.5s2-4.5,4.5-4.5s4.5,2,4.5,4.5S1504.4,389.3,1501.9,389.3z M1501.9,381.4
              c-1.9,0-3.5,1.5-3.5,3.5s1.5,3.5,3.5,3.5s3.5-1.5,3.5-3.5S1503.8,381.4,1501.9,381.4z"/>
          </g>
        </g>
      </g>
      <g>
        <g>
          <g>
            <circle class="st11" cx="1514.5" cy="384.9" r="4"/>
          </g>
        </g>
        <g>
          <g>
            <path d="M1514.5,389.3c-2.5,0-4.5-2-4.5-4.5s2-4.5,4.5-4.5s4.5,2,4.5,4.5S1517,389.3,1514.5,389.3z M1514.5,381.4
              c-1.9,0-3.5,1.5-3.5,3.5s1.5,3.5,3.5,3.5s3.5-1.5,3.5-3.5S1516.5,381.4,1514.5,381.4z"/>
          </g>
        </g>
      </g>
      <g>
        <g>
          <g>
            <circle class="st11" cx="1527.2" cy="384.9" r="4"/>
          </g>
        </g>
        <g>
          <g>
            <path d="M1527.2,389.3c-2.5,0-4.5-2-4.5-4.5s2-4.5,4.5-4.5s4.5,2,4.5,4.5S1529.6,389.3,1527.2,389.3z M1527.2,381.4
              c-1.9,0-3.5,1.5-3.5,3.5s1.5,3.5,3.5,3.5s3.5-1.5,3.5-3.5S1529.1,381.4,1527.2,381.4z"/>
          </g>
        </g>
      </g>
      <g>
        <g>
          <g>
            <circle class="st8" cx="1484.5" cy="428.1" r="16.6"/>
          </g>
        </g>
        <g>
          <g>
            <path class="st2" d="M1484.5,445.2c-9.4,0-17.1-7.7-17.1-17.1s7.7-17.1,17.1-17.1s17.1,7.7,17.1,17.1
              S1493.9,445.2,1484.5,445.2z M1484.5,412c-8.9,0-16.1,7.2-16.1,16.1s7.2,16.1,16.1,16.1s16.1-7.2,16.1-16.1
              S1493.4,412,1484.5,412z"/>
          </g>
        </g>
      </g>
      <g>
        <g>
          <g>
            <circle class="st10" cx="1503.5" cy="428.1" r="16.6"/>
          </g>
        </g>
        <g>
          <g>
            <path class="st2" d="M1503.5,445.2c-9.4,0-17.1-7.7-17.1-17.1s7.7-17.1,17.1-17.1s17.1,7.7,17.1,17.1
              S1512.9,445.2,1503.5,445.2z M1503.5,412c-8.9,0-16.1,7.2-16.1,16.1s7.2,16.1,16.1,16.1s16.1-7.2,16.1-16.1
              S1512.4,412,1503.5,412z"/>
          </g>
        </g>
      </g>
      <g>
        <g>
          <g>
            <path class="st11" d="M1375.7,415.4L1375.7,415.4c0,2.2,1.8,4,4,4h63.2c2.2,0,4-1.8,4-4v0c0-2.2-1.8-4-4-4h-63.2
              C1377.5,411.5,1375.7,413.2,1375.7,415.4z"/>
          </g>
        </g>
        <g>
          <g>
            <path d="M1442.9,419.9h-63.2c-2.5,0-4.5-2-4.5-4.5s2-4.5,4.5-4.5h63.2c2.5,0,4.5,2,4.5,4.5S1445.3,419.9,1442.9,419.9z
                M1379.7,412c-1.9,0-3.5,1.5-3.5,3.5s1.5,3.5,3.5,3.5h63.2c1.9,0,3.5-1.5,3.5-3.5s-1.5-3.5-3.5-3.5H1379.7z"/>
          </g>
        </g>
      </g>
      <g>
        <g>
          <g>
            <path class="st11" d="M1375.7,428.1L1375.7,428.1c0,2.2,1.8,4,4,4h63.2c2.2,0,4-1.8,4-4l0,0c0-2.2-1.8-4-4-4h-63.2
              C1377.5,424.1,1375.7,425.9,1375.7,428.1z"/>
          </g>
        </g>
        <g>
          <g>
            <path d="M1442.9,432.5h-63.2c-2.5,0-4.5-2-4.5-4.5s2-4.5,4.5-4.5h63.2c2.5,0,4.5,2,4.5,4.5S1445.3,432.5,1442.9,432.5z
                M1379.7,424.6c-1.9,0-3.5,1.5-3.5,3.5s1.5,3.5,3.5,3.5h63.2c1.9,0,3.5-1.5,3.5-3.5s-1.5-3.5-3.5-3.5H1379.7z"/>
          </g>
        </g>
      </g>
      <g>
        <g>
          <g>
            <path class="st11" d="M1375.7,440.7L1375.7,440.7c0,2.2,1.8,4,4,4h63.2c2.2,0,4-1.8,4-4l0,0c0-2.2-1.8-4-4-4h-63.2
              C1377.5,436.8,1375.7,438.5,1375.7,440.7z"/>
          </g>
        </g>
        <g>
          <g>
            <path d="M1442.9,445.2h-63.2c-2.5,0-4.5-2-4.5-4.5s2-4.5,4.5-4.5h63.2c2.5,0,4.5,2,4.5,4.5S1445.3,445.2,1442.9,445.2z
                M1379.7,437.3c-1.9,0-3.5,1.5-3.5,3.5c0,1.9,1.5,3.5,3.5,3.5h63.2c1.9,0,3.5-1.5,3.5-3.5c0-1.9-1.5-3.5-3.5-3.5H1379.7z"/>
          </g>
        </g>
      </g>
    </g>
    <g id="Rating">
      <g>
        <g>
          <g>
            <rect x="77.8" y="429" class="st11" width="227.2" height="90"/>
          </g>
        </g>
        <g>
          <g>
            <path class="st2" d="M305.5,519.5H77.3v-91h228.2V519.5z M78.3,518.5h226.2v-89H78.3V518.5z"/>
          </g>
        </g>
      </g>
      <g>
        <g>
          <g>
            <circle class="st8" cx="108.5" cy="458" r="16"/>
          </g>
        </g>
        <g>
          <g>
            <path class="st2" d="M108.5,474.5c-9.1,0-16.5-7.4-16.5-16.5s7.4-16.5,16.5-16.5s16.5,7.4,16.5,16.5S117.6,474.5,108.5,474.5
              z M108.5,442.4c-8.6,0-15.5,7-15.5,15.5s7,15.5,15.5,15.5c8.6,0,15.5-7,15.5-15.5S117.1,442.4,108.5,442.4z"/>
          </g>
        </g>
      </g>
      <g>
        <g>
          <g>
            <polygon class="st8" points="145,449.4 147.8,455 154.1,455.9 149.6,460.3 150.6,466.5 145,463.6 139.5,466.5 140.5,460.3 
              136,455.9 142.3,455 							"/>
          </g>
        </g>
        <g>
          <g>
            <path class="st2" d="M151.3,467.4l-6.2-3.3l-6.2,3.3l1.2-6.9l-5-4.9l7-1l3.1-6.3l3.1,6.3l7,1l-5,4.9L151.3,467.4z M145,463
              l4.9,2.6l-0.9-5.5l4-3.9l-5.5-0.8l-2.5-5l-2.5,5l-5.5,0.8l4,3.9l-0.9,5.5L145,463z"/>
          </g>
        </g>
      </g>
      <g>
        <g>
          <g>
            <polygon class="st8" points="172.7,449.4 175.5,455 181.7,455.9 177.2,460.3 178.2,466.5 172.7,463.6 167.1,466.5 
              168.2,460.3 163.7,455.9 169.9,455 							"/>
          </g>
        </g>
        <g>
          <g>
            <path class="st2" d="M178.9,467.4l-6.2-3.3l-6.2,3.3l1.2-6.9l-5-4.9l7-1l3.1-6.3l3.1,6.3l7,1l-5,4.9L178.9,467.4z M172.7,463
              l4.9,2.6l-0.9-5.5l4-3.9l-5.5-0.8l-2.5-5l-2.5,5l-5.5,0.8l4,3.9l-0.9,5.5L172.7,463z"/>
          </g>
        </g>
      </g>
      <g>
        <g>
          <g>
            <polygon class="st8" points="200.3,449.4 203.1,455 209.3,455.9 204.8,460.3 205.9,466.5 200.3,463.6 194.7,466.5 
              195.8,460.3 191.3,455.9 197.5,455 							"/>
          </g>
        </g>
        <g>
          <g>
            <path class="st2" d="M206.5,467.4l-6.2-3.3l-6.2,3.3l1.2-6.9l-5-4.9l7-1l3.1-6.3l3.1,6.3l7,1l-5,4.9L206.5,467.4z M200.3,463
              l4.9,2.6l-0.9-5.5l4-3.9l-5.5-0.8l-2.5-5l-2.5,5l-5.5,0.8l4,3.9l-0.9,5.5L200.3,463z"/>
          </g>
        </g>
      </g>
      <g>
        <g>
          <g>
            <polygon class="st8" points="227,449.4 229.8,455 236,455.9 231.5,460.3 232.6,466.5 227,463.6 221.5,466.5 222.5,460.3 
              218,455.9 224.2,455 							"/>
          </g>
        </g>
        <g>
          <g>
            <path class="st2" d="M233.3,467.4l-6.2-3.3l-6.2,3.3l1.2-6.9l-5-4.9l7-1l3.1-6.3l3.1,6.3l7,1l-5,4.9L233.3,467.4z M227,463
              l4.9,2.6l-0.9-5.5l4-3.9l-5.5-0.8l-2.5-5l-2.5,5l-5.5,0.8l4,3.9l-0.9,5.5L227,463z"/>
          </g>
        </g>
      </g>
      <g>
        <g>
          <g>
            <polygon class="st8" points="253.8,449.4 256.5,455 262.8,455.9 258.3,460.3 259.3,466.5 253.8,463.6 248.2,466.5 
              249.3,460.3 244.8,455.9 251,455 							"/>
          </g>
        </g>
        <g>
          <g>
            <path class="st2" d="M260,467.4l-6.2-3.3l-6.2,3.3l1.2-6.9l-5-4.9l7-1l3.1-6.3l3.1,6.3l7,1l-5,4.9L260,467.4z M253.8,463
              l4.9,2.6l-0.9-5.5l4-3.9l-5.5-0.8l-2.5-5l-2.5,5l-5.5,0.8l4,3.9l-0.9,5.5L253.8,463z"/>
          </g>
        </g>
      </g>
      <g>
        <g>
          <g>
            <rect x="92" y="500.3" class="st6" width="197.8" height="7.1"/>
          </g>
        </g>
        <g>
          <g>
            <path class="st2" d="M290.4,507.9H91.5v-8.1h198.8V507.9z M92.5,506.9h196.8v-6.1H92.5V506.9z"/>
          </g>
        </g>
      </g>
      <g>
        <g>
          <g>
            <rect x="92.5" y="483.8" class="st6" width="98" height="7.1"/>
          </g>
        </g>
        <g>
          <g>
            <path class="st2" d="M191,491.4H92v-8.1h99V491.4z M93,490.4h97v-6.1H93V490.4z"/>
          </g>
        </g>
      </g>
    </g>
    <g id="Wooden_chairs">
      <g>
        <g>
          <g>
            <rect x="128" y="856" class="st15" width="124" height="209"/>
          </g>
        </g>
        <g>
          <g>
            <g>
              <rect x="188.3" y="856.5" class="st11" width="287.6" height="208"/>
            </g>
          </g>
          <g>
            <g>
              <path d="M476.4,1065H187.8V856h288.6V1065z M188.8,1064h286.6V857H188.8V1064z"/>
            </g>
          </g>
        </g>
        <g>
          <g>
            <g>
              <path class="st6" d="M447.5,964.2c-13.9,1.7-26.2-7.2-36.7-15.1c-12-8.9-23.4-18.8-33.8-29.5
                c-10.7-10.9-20.5-22.7-29.3-35.2c-6.4-9.1-12.2-18.6-18.3-27.9h3.6c0.1,0.1,0.2,0.3,0.3,0.4c8.4,12.9,16.5,25.9,26.1,38.1
                c9.4,11.9,19.7,23,30.9,33.3c11.2,10.3,23.4,20.8,36.8,28.1c7.1,3.9,15.3,6.4,23.4,4.3c8.3-2.2,13.2-8.9,13.8-17.3
                c1.2-14.9-5.9-31.8-12.5-44.8c-7.4-14.7-17.6-27.6-25.5-42h3.4c0,0,0,0,0,0c8.4,14.8,19,28.3,26.2,43.7
                C464.2,918.1,479.6,960.3,447.5,964.2z"/>
            </g>
          </g>
          <g>
            <g>
              <path class="st6" d="M279.1,944.5c-12.1-2.8-23.2-13.4-31.7-21.8c-9.6-9.6-18.4-20-28.8-28.8c-2.8-2.3-5.8-5.1-9.1-6.6
                c-7-3.3-7.1,6.1-6.9,10.4c0.4,7.9,3,15.5,5.7,22.9c2.6,6.9,5.5,13.8,7.4,20.9c1.3,4.8,3.4,11.5,0.9,16.3
                c-5.9,11.3-21.4-3.1-26.8-7.7c-0.5-0.4-1-0.8-1.4-1.2v-4c2.2,1.9,4.4,3.8,6.6,5.6c3.1,2.5,6.2,5.2,9.8,6.9
                c2.3,1.1,6.1,2.2,8.3,0.1c2-1.9,1.6-5.3,1.3-7.7c-1.9-14.5-9.8-27.5-13.3-41.6c-1.5-6.1-5.4-26.4,6.3-24.7
                c5.4,0.8,10.4,5.8,14.4,9.2c5,4.3,9.5,9,14.1,13.7c9.5,10,18.8,20.6,30.3,28.3c6.3,4.2,16,10.8,22.7,4.2
                c6.8-6.7,3.7-17.6,1.3-25.6c-4.5-14.9-11.4-28.8-17.8-43c-2.1-4.6-4.1-9.3-6-14h3.2c3.3,8.2,7.1,16.1,10.8,24.1
                c6.2,13.4,13.1,27.6,15.3,42.3C297.1,933.1,292,947.5,279.1,944.5z"/>
            </g>
          </g>
        </g>
        <g>
          <g>
            <g>
              <path class="st6" d="M279.4,1064.5h-3.7c-1-1.5-2-3-3-4.4c-3.8-5.6-7-11.5-10.8-17c-2.1-3.1-4.7-6.6-8.3-7.9
                c-4.1-1.5-7.2,0.9-11,2.3c-12.6,4.8-26.3,0.4-37.9-5.2c-5.6-2.7-11.1-5.6-16.4-8.8v-3.3c8,4.8,16.2,9.1,24.7,12.4
                c6.8,2.6,14.1,4.5,21.4,3.7c6.1-0.6,11.6-5.5,17.7-4.7c5,0.6,8.8,4.8,11.5,8.7c3.7,5.2,6.8,10.9,10.3,16.3
                C275.7,1059.2,277.5,1061.9,279.4,1064.5z"/>
            </g>
          </g>
        </g>
        <g>
          <g>
            <g>
              <path class="st6" d="M475.9,1058.9v3c-20.6-4.3-40.3-13-57.1-25.8c-14.6-11.1-25.2-24.9-35.9-39.6c-5.8-7.9-11.9-16-20-21.7
                c-3.6-2.6-11.5-8.3-15.3-4.1c-4.4,4.7-1.8,14.4-0.2,19.8c3.2,11.5,6.6,22.7,8.2,34.6c1,7.2,3.6,18.7-1.8,24.8
                c-5.6,6.3-16.9,3.3-23.5,0.6c-9-3.7-16.6-10.2-23.6-16.8c-7.7-7.4-14.7-15.5-20.8-24.2c-6.2-8.8-10.7-18.5-16.9-27.3
                c-3.2-4.5-11.4-15.3-16.5-6.7c-2.7,4.6-1.4,9.9-0.8,14.8c0.8,7.3-1.1,14.6-8.9,16.9c-7.4,2.2-15.4-0.7-22.1-3.5
                c-9.5-4-18.7-8.9-27.4-14.6c-1.7-1.1-3.3-2.2-4.9-3.4v-3.7c5.6,4.1,11.5,7.8,17.6,11.2c9.1,5,20.1,11.5,30.8,11.6
                c7.3,0.1,12.2-3.8,12.1-11.5c0-4.6-1.6-9.1-0.9-13.7c0.9-6.3,5.5-12.5,12.5-9.9c7.5,2.7,12.6,12.9,16.3,19.2
                c11,18.9,23.5,36.7,40.9,50.3c4.9,3.9,10.4,7.4,16.4,9.3c5,1.7,12.6,3.4,16.8-0.6c4.3-4,2.9-11.8,2.3-17.1
                c-0.6-6.2-1.6-12.3-2.9-18.3c-2.2-10.5-7.1-20.8-7.9-31.5c-0.4-5.5,1-16,8.6-15.4c7.6,0.6,15.5,7.4,20.6,12.5
                c6.2,6.1,11.3,13.2,16.3,20.2c11.2,15.6,23.3,29.3,39.4,40C442.2,1048.4,458.7,1055.3,475.9,1058.9z"/>
            </g>
          </g>
        </g>
        <g>
          <g>
            <g>
              <path class="st6" d="M475.9,885.8v4.5c-8.7-11.1-18-21.8-25.3-33.8h3.4C460.3,866.8,468.2,876.2,475.9,885.8z"/>
            </g>
          </g>
        </g>
        <g>
          <g>
            <g>
              <path class="st6" d="M258.1,885.8c-2.4,2.9-6.1,3-9.3,1.7c-5.6-2.2-10.3-7.4-14.9-11.1c-6-4.8-12.2-9.5-18.6-13.9
                c-3-2.1-5.9-4.1-8.9-6.1h5.3c8.8,5.9,17.4,12.3,25.7,19c3.3,2.7,14.3,14.6,18.8,7.9c2.8-4.2-1.8-12.3-3.2-16.2
                c-1.3-3.6-2.7-7.1-4-10.7h3.5c2.2,5.8,4.3,11.6,6.2,17.5C259.9,877.7,260.8,882.5,258.1,885.8z"/>
            </g>
          </g>
        </g>
        <g>
          <g>
            <g>
              <path class="st6" d="M401.8,1064.5h-3.6c-0.7-1.1-1.4-2.2-2.1-3.3c-1.9-2.9-3.9-5.8-6.2-8.5c-3.4-3.9-10.4-8.8-11.8-0.3
                c-0.5,3,0.7,6.2,1.1,9.2c0.1,1,0.3,1.9,0.3,2.9h-3c0-0.4-0.1-0.7-0.1-1.1c-0.6-5.2-3.1-11.3,0.3-16
                c7.9-10.8,19.8,9,23.3,14.5C400.6,1062.7,401.2,1063.6,401.8,1064.5z"/>
            </g>
          </g>
        </g>
      </g>
      <g>
        <g>
          <polygon class="st2" points="279.5,1051.5 282.2,1064.5 239.5,1064.5 329.2,856.5 360.5,856.5 						"/>
        </g>
      </g>
      <g>
        <g>
          <g>
            <path class="st6" d="M475.9,1004.6c-2.6,3.6-5.7,6.6-9.5,8.8c-4.4,2.6-9.4,3.9-15,3.9c-11.8,0-26.3-5.7-43.2-17.1l1.7-2.5
              c24,16.1,42.5,20.5,55.1,13.1c4.7-2.8,8.3-7,11-12V1004.6z"/>
          </g>
        </g>
      </g>
    </g>
    <g id="Package">
      <g>
        <g>
          <g>
            <polygon class="st5" points="607.2,926.5 616.7,1065 521.7,1065 521.7,926.5 							"/>
          </g>
        </g>
        <g>
          <g>
            <path class="st2" d="M617.3,1065.5h-96.1V926h86.5l0,0.5L617.3,1065.5z M522.2,1064.5h94L606.8,927h-84.6V1064.5z"/>
          </g>
        </g>
      </g>
      <g>
        <g>
          <g>
            <polygon class="st2" points="525.4,926.5 532.3,1065 494.4,1065 501.9,926.5 							"/>
          </g>
        </g>
        <g>
          <g>
            <path class="st2" d="M532.8,1065.5h-38.9l7.5-139.5h24.5l0,0.5L532.8,1065.5z M495,1064.5h36.8L524.9,927h-22.6L495,1064.5z"
              />
          </g>
        </g>
      </g>
      <g>
        <g>
          <path class="st2" d="M578.8,965.9c-0.3,0-0.7,0-0.9,0c-18.9-1-22.1-17-22.6-20.2c-0.2-1.5-0.4-3-0.6-4.4
            c-2-14-2.7-19.3-7.9-18.7c-4.1,0.4-5.6,4-5.7,4.2l-0.9-0.4c0.1-0.2,1.8-4.3,6.5-4.8c6.2-0.6,7,5.3,9,19.6
            c0.2,1.4,0.4,2.8,0.6,4.4c0.4,3.1,3.6,18.4,21.7,19.4c2.2,0.1,6.5-0.1,9.7-3c2.7-2.4,4.2-6.3,4.5-11.4
            c0.3-6.5-1.5-23.4-6.7-26.2c-1.5-0.8-2.8-1-3.9-0.6c-1.8,0.7-2.5,3-2.5,3.1l-1-0.3c0-0.1,0.8-2.8,3-3.7c1.4-0.6,3-0.4,4.7,0.6
            c5.8,3.2,7.5,20.9,7.2,27.1c-0.3,5.4-1.9,9.5-4.8,12.1C585.2,965.3,581.3,965.9,578.8,965.9z"/>
        </g>
      </g>
      <g>
        <g>
          <g>
            <polygon class="st6" points="626,983.8 554.4,983.8 559.8,1065 646.7,1065 							"/>
          </g>
        </g>
        <g>
          <g>
            <path class="st2" d="M647.3,1065.5h-88l-5.5-82.2h72.5l0.1,0.4L647.3,1065.5z M560.3,1064.5H646l-20.5-80.2H555L560.3,1064.5
              z"/>
          </g>
        </g>
      </g>
      <g>
        <g>
          <g>
            <polygon class="st2" points="546.7,983.6 556.9,983.6 577,1065 548.8,1065 							"/>
          </g>
        </g>
        <g>
          <g>
            <path class="st2" d="M577.6,1065.5h-29.3l0-0.5l-2.2-81.9h11.2L577.6,1065.5z M549.3,1064.5h27l-19.8-80.4h-9.4L549.3,1064.5
              z"/>
          </g>
        </g>
      </g>
      <g>
        <g>
          <path class="st2" d="M602.2,1011.4c0,0-0.1,0-0.1,0c-6.3,0-11-3.6-14.2-10.9l-6.9-16.4c0,0-2.1-4.4-5.6-3.6
            c-3.1,0.7-3.7,3.5-3.7,3.5l-1-0.2c0-0.1,0.8-3.5,4.5-4.3c4.2-0.9,6.6,4,6.7,4.2l6.9,16.4c4.1,9.2,9.5,10.3,13.3,10.3
            c0,0,0.1,0,0.1,0c11.4,0,11.8-8.8,12-14c0-0.4,0-0.8,0.1-1.2c0.6-11.9-3.1-13.7-4.2-14c-4.4-1.1-5.8,2.9-5.9,3l-0.9-0.3
            c0-0.1,1.7-5,7.1-3.7c1.7,0.4,5.7,2.8,5,15.1c0,0.4,0,0.8,0,1.2C614.9,1001.6,614.6,1011.4,602.2,1011.4z"/>
        </g>
      </g>
      <g>
        <g>
          <polygon class="st7" points="494.4,1065.8 493.6,1065.2 512.9,1042 512.9,926.5 513.9,926.5 513.9,1042.4 						"/>
        </g>
      </g>
      <g>
        <g>
          
            <rect x="522.1" y="1038.7" transform="matrix(0.7593 -0.6508 0.6508 0.7593 -559.6884 593.6813)" class="st7" width="1" height="29.3"/>
        </g>
      </g>
      <g>
        <g>
          <polygon class="st7" points="549.5,1064.7 548.6,1064.2 559.1,1047.4 551.7,983.7 552.7,983.6 560.2,1047.6 						"/>
        </g>
      </g>
      <g>
        <g>
          
            <rect x="567.6" y="1044" transform="matrix(0.7071 -0.7071 0.7071 0.7071 -580.2841 711.0074)" class="st7" width="1" height="24"/>
        </g>
      </g>
    </g>
    <g id="Package_Box">
      <g>
        <g>
          <rect x="642" y="928" class="st2" width="176" height="137"/>
        </g>
      </g>
      <g>
        <g>
          <g>
            <rect x="687.3" y="928" class="st8" width="160.9" height="137"/>
          </g>
        </g>
        <g>
          <g>
            <path class="st2" d="M848.7,1065.5H686.8v-138h161.9V1065.5z M687.8,1064.5h159.9v-136H687.8V1064.5z"/>
          </g>
        </g>
      </g>
      <g>
        <g>
          <polygon class="st2" points="793.1,928 793.1,962.2 783.1,956.6 775.3,961.8 766,956.6 757.5,962.2 757.5,928 						"/>
        </g>
      </g>
      <g>
        <g>
          <rect x="720.4" y="995.3" class="st2" width="37.1" height="2"/>
        </g>
      </g>
      <g>
        <g>
          <rect x="720.4" y="1009.8" class="st2" width="37.1" height="2"/>
        </g>
      </g>
      <g>
        <g>
          <rect x="720.4" y="1024.3" class="st2" width="37.1" height="2"/>
        </g>
      </g>
      <g>
        <g>
          <g>
            <rect x="768.3" y="992.2" class="st11" width="60.1" height="37.5"/>
          </g>
        </g>
        <g>
          <g>
            <path class="st2" d="M828.9,1030.2h-61.1v-38.5h61.1V1030.2z M768.8,1029.2h59.1v-36.5h-59.1V1029.2z"/>
          </g>
        </g>
      </g>
    </g>
    <g id="Coin_1_">
      <g>
        <g>
          <circle class="st2" cx="1450.3" cy="569.8" r="45.7"/>
        </g>
      </g>
      <g>
        <g>
          <g>
            <circle class="st8" cx="1443.7" cy="569.7" r="45.7"/>
          </g>
        </g>
        <g>
          <g>
            <path class="st2" d="M1443.7,615.9c-25.5,0-46.2-20.7-46.2-46.2s20.7-46.2,46.2-46.2s46.2,20.7,46.2,46.2
              S1469.2,615.9,1443.7,615.9z M1443.7,524.5c-24.9,0-45.2,20.3-45.2,45.2s20.3,45.2,45.2,45.2s45.2-20.3,45.2-45.2
              S1468.6,524.5,1443.7,524.5z"/>
          </g>
        </g>
      </g>
      <g>
        <g>
          <g>
            <path class="st2" d="M1454.8,585.5c-2.2,2-5.3,3.3-9.4,3.7v6.1h-4.4v-6c-2.7-0.2-5.2-0.7-7.6-1.5c-2.4-0.8-4.3-1.8-5.7-3
              l2.4-5.5c1.3,1.1,3,2,4.9,2.7c1.9,0.7,3.9,1.2,6,1.4v-10.8c-2.6-0.6-4.7-1.3-6.4-2c-1.7-0.7-3.2-1.8-4.3-3.3
              c-1.2-1.4-1.7-3.3-1.7-5.7c0-2.9,1.1-5.4,3.2-7.5c2.1-2.1,5.2-3.3,9.3-3.7v-6.1h4.4v6c2,0.1,4,0.5,5.9,1
              c1.9,0.6,3.6,1.3,5.1,2.3l-2.2,5.5c-2.7-1.6-5.7-2.6-8.8-2.9v11c2.6,0.6,4.8,1.3,6.5,2c1.7,0.7,3.2,1.8,4.3,3.2
              c1.2,1.4,1.8,3.3,1.8,5.7C1458,581,1456.9,583.4,1454.8,585.5z M1436.9,564.1c0.9,0.7,2.3,1.3,4.1,1.8v-9.7
              c-1.8,0.3-3.2,0.9-4.1,1.7c-0.9,0.9-1.4,1.9-1.4,3.2C1435.5,562.5,1436,563.4,1436.9,564.1z M1449.7,581.6
              c0.9-0.8,1.4-1.9,1.4-3.1c0-1.2-0.5-2.2-1.5-3c-1-0.7-2.4-1.4-4.2-1.9v9.6C1447.3,583,1448.8,582.4,1449.7,581.6z"/>
          </g>
        </g>
      </g>
    </g>
    <g id="Coin">
      <g>
        <g>
          <circle class="st2" cx="426.7" cy="518.7" r="30.3"/>
        </g>
      </g>
      <g>
        <g>
          <g>
            <circle class="st8" cx="422.3" cy="518.6" r="30.3"/>
          </g>
        </g>
        <g>
          <g>
            <path class="st2" d="M422.3,549.4c-17,0-30.8-13.8-30.8-30.8s13.8-30.8,30.8-30.8s30.8,13.8,30.8,30.8
              S439.3,549.4,422.3,549.4z M422.3,488.8c-16.4,0-29.8,13.4-29.8,29.8c0,16.4,13.4,29.8,29.8,29.8s29.8-13.4,29.8-29.8
              C452.1,502.1,438.7,488.8,422.3,488.8z"/>
          </g>
        </g>
      </g>
      <g>
        <g>
          <g>
            <path class="st2" d="M429.6,529.1c-1.4,1.4-3.5,2.2-6.2,2.5v4h-3v-4c-1.8-0.1-3.5-0.4-5-1c-1.6-0.5-2.8-1.2-3.8-2l1.6-3.6
              c0.9,0.7,2,1.3,3.2,1.8c1.3,0.5,2.6,0.8,4,0.9v-7.2c-1.7-0.4-3.1-0.9-4.3-1.4c-1.1-0.5-2.1-1.2-2.9-2.2
              c-0.8-0.9-1.2-2.2-1.2-3.8c0-1.9,0.7-3.6,2.1-5c1.4-1.4,3.5-2.2,6.2-2.4v-4.1h3v4c1.3,0.1,2.7,0.3,3.9,0.7
              c1.3,0.4,2.4,0.9,3.4,1.5l-1.5,3.6c-1.8-1.1-3.8-1.7-5.8-1.9v7.3c1.7,0.4,3.2,0.9,4.3,1.3c1.1,0.5,2.1,1.2,2.9,2.1
              c0.8,0.9,1.2,2.2,1.2,3.8C431.8,526.1,431.1,527.7,429.6,529.1z M417.8,514.9c0.6,0.5,1.5,0.9,2.7,1.2v-6.4
              c-1.2,0.2-2.1,0.6-2.7,1.2c-0.6,0.6-0.9,1.3-0.9,2.1C416.8,513.8,417.2,514.4,417.8,514.9z M426.3,526.5
              c0.6-0.6,0.9-1.2,0.9-2.1c0-0.8-0.3-1.5-1-2c-0.6-0.5-1.6-0.9-2.8-1.2v6.4C424.7,527.4,425.6,527.1,426.3,526.5z"/>
          </g>
        </g>
      </g>
    </g>
    <g id="Like_icon">
      <g>
        <g>
          <g>
            <path class="st11" d="M250.4,274h-99.5c-4.8,0-8.6,3.9-8.6,8.6v72.6c0,4.8,3.9,8.6,8.6,8.6h30.6l19.2,27.2l19.2-27.2h30.6
              c4.8,0,8.6-3.9,8.6-8.6v-72.6C259,277.9,255.1,274,250.4,274z"/>
          </g>
        </g>
        <g>
          <g>
            <path class="st2" d="M200.6,391.9l-19.4-27.5h-30.3c-5,0-9.1-4.1-9.1-9.1v-72.6c0-5,4.1-9.1,9.1-9.1h99.5
              c5,0,9.1,4.1,9.1,9.1v72.6c0,5-4.1,9.1-9.1,9.1h-30.3L200.6,391.9z M150.9,274.5c-4.5,0-8.1,3.6-8.1,8.1v72.6
              c0,4.5,3.6,8.1,8.1,8.1h30.8l18.9,26.8l18.9-26.8h30.8c4.5,0,8.1-3.6,8.1-8.1v-72.6c0-4.5-3.6-8.1-8.1-8.1H150.9z"/>
          </g>
        </g>
      </g>
      <g>
        <g>
          <g>
            <g>
              <path class="st8" d="M200.6,287v13.1l-16.4,24.6v19.7l4.1,3.2c2.2,1.7,4.9,2.6,7.7,2.6h27.5c2.4,0,4.6-1.3,5.6-3.5
                c0.7-1.4,0.9-3.3-0.1-5.7c0,0,7.5-0.7,4.5-9.5c0,0,6.4-4.2,0.6-10.9c0,0,4.6-4.6,1.3-8.7c-1.2-1.5-3.1-2.4-5.1-2.4h-18.4
                C211.9,309.6,218,284.5,200.6,287z"/>
            </g>
          </g>
          <g>
            <g>
              <path class="st2" d="M223.5,350.7H196c-2.9,0-5.7-1-8-2.8l-4.3-3.4v-20.1l0.1-0.1l16.3-24.4v-13.4l0.4-0.1
                c4.2-0.6,7.4,0.3,9.6,2.7c5,5.5,3,17,2.4,19.8h17.8c2.2,0,4.2,0.9,5.5,2.6c3,3.7,0,7.8-1,9c1.8,2.2,2.5,4.3,2.2,6.4
                c-0.4,2.5-2.1,4.2-2.9,4.7c0.9,2.9,0.8,5.3-0.3,7c-1.2,1.8-3.1,2.4-4.1,2.7c0.7,2,0.7,3.9-0.1,5.5
                C228.5,349.2,226.1,350.7,223.5,350.7z M184.7,344.1l3.9,3.1c2.1,1.6,4.7,2.5,7.3,2.5h27.5c2.2,0,4.3-1.3,5.2-3.2
                c0.8-1.6,0.7-3.4-0.1-5.3l-0.3-0.6l0.7-0.1c0,0,2.7-0.3,4-2.3c1-1.6,1-3.7,0.1-6.5l-0.1-0.4l0.3-0.2c0,0,2.4-1.6,2.7-4.3
                c0.3-1.9-0.5-3.9-2.3-5.9l-0.3-0.4l0.3-0.3c0.2-0.2,4.2-4.3,1.2-8c-1.1-1.4-2.9-2.2-4.7-2.2h-19l0.1-0.6
                c0-0.1,3.2-13.8-2-19.6c-1.9-2.1-4.7-2.9-8.3-2.5v12.8l-0.1,0.1l-16.3,24.4V344.1z"/>
            </g>
          </g>
        </g>
        <g>
          <g>
            <g>
              <path class="st6" d="M167.6,316.6h16.6c1.6,0,2.9,1.3,2.9,2.9v27.8c0,1.6-1.3,2.9-2.9,2.9h-16.6c-1.6,0-2.9-1.3-2.9-2.9
                v-27.8C164.7,317.9,166,316.6,167.6,316.6z"/>
            </g>
          </g>
          <g>
            <g>
              <path class="st2" d="M184.2,350.7h-16.6c-1.9,0-3.4-1.5-3.4-3.4v-27.8c0-1.9,1.5-3.4,3.4-3.4h16.6c1.9,0,3.4,1.5,3.4,3.4
                v27.8C187.6,349.1,186.1,350.7,184.2,350.7z M167.6,317.1c-1.3,0-2.4,1.1-2.4,2.4v27.8c0,1.3,1.1,2.4,2.4,2.4h16.6
                c1.3,0,2.4-1.1,2.4-2.4v-27.8c0-1.3-1.1-2.4-2.4-2.4H167.6z"/>
            </g>
          </g>
        </g>
      </g>
    </g>
    <g id="Man">
      <g>
        <g>
          <path class="st2" d="M313,594c0,0-2,15-7,18l-5-18H313z"/>
        </g>
      </g>
      <g>
        <g>
          <g>
            <path class="st5" d="M319.9,1064.5h-44.3l-14.8-11.1l9.8-17.2l5.6-10l5.9-10.6l13.1-23.6l30.8,17.2l-17.4,21.8l-5.1,6.4
              l-7,8.7C312.4,1049.6,319.9,1064.5,319.9,1064.5z"/>
          </g>
        </g>
        <g>
          <g>
            <path class="st2" d="M320.7,1065h-45.3l-15.3-11.4l10.1-17.6l24.9-44.7l31.7,17.8l-29.4,36.8c15.4,3.9,22.9,18.4,22.9,18.5
              L320.7,1065z M275.8,1064H319c-1.8-3-9.2-14.4-22.6-17.5l-0.8-0.2l29.7-37.1l-29.8-16.7l-24.4,43.9l-9.6,16.9L275.8,1064z"/>
          </g>
        </g>
      </g>
      <g>
        <g>
          <g>
            <path class="st5" d="M452.5,1064.4h-57.8l-1.5-20.9l-1.5-22.2h30.5l1.6,16.8l0.4,4.2C424.1,1042.2,450,1057,452.5,1064.4z"/>
          </g>
        </g>
        <g>
          <g>
            <path class="st2" d="M453.1,1064.9h-59l-3.1-44.1h31.5l2,21.1c2.7,1.6,25.9,15.1,28.3,22.3L453.1,1064.9z M395.1,1063.9h56.6
              c-3.6-7.3-27.6-21.1-27.8-21.2l-0.2-0.1l-2-20.7h-29.5L395.1,1063.9z"/>
          </g>
        </g>
      </g>
      <g>
        <g>
          <polygon class="st2" points="423.7,1038.1 393.2,1043.5 391.6,1021.3 422.1,1021.3 						"/>
        </g>
      </g>
      <g>
        <g>
          <polygon class="st2" points="326,1009.1 308.6,1030.9 303.5,1037.3 276.3,1026.2 282.2,1015.5 295.3,991.9 						"/>
        </g>
      </g>
      <g>
        <g>
          <g>
            <path class="st8" d="M282,640.5c-0.4-0.2-0.9-0.4-1.3-0.6l-3,29.5l-36.8-5.6l14.4-46.2c-1.9-2.8-6.2-6.7-4.7-13.2
              c0,0,1-6,6-6c1.1,0,2.3,0.5,3.4,1.4l4.5-16l42.1,9.5C306.6,593.3,311.4,653.7,282,640.5z"/>
          </g>
        </g>
        <g>
          <g>
            <path class="st2" d="M278.1,670l-37.9-5.7l14.5-46.5c-0.3-0.4-0.6-0.8-0.9-1.2c-2.1-2.8-5-6.5-3.8-12.2c0,0,1.1-6.3,6.4-6.3
              c1,0,2,0.4,3.1,1l4.5-15.8l42.9,9.6l0,0.4c0.1,1.6,2.9,38.1-10.4,47.5c-4,2.8-8.9,2.9-14.8,0.2l0,0c-0.2-0.1-0.5-0.2-0.7-0.3
              L278.1,670z M241.5,663.4l35.7,5.4l3.1-29.7l0.6,0.3c0.4,0.2,0.9,0.4,1.3,0.6c5.5,2.5,10.2,2.4,13.8-0.2
              c12.2-8.6,10.3-42.3,10-46.2l-41.3-9.3l-4.6,16.2l-0.6-0.4c-1.1-0.8-2.2-1.3-3.1-1.3c-4.5,0-5.5,5.5-5.5,5.5
              c-1.2,5.3,1.6,8.8,3.6,11.4c0.4,0.5,0.8,1,1.1,1.4l0.1,0.2l-0.1,0.2L241.5,663.4z"/>
          </g>
        </g>
      </g>
      <g>
        <g>
          <g>
            <polygon class="st9" points="371,805.2 274.7,1020.5 320.7,1032.5 408.3,864.3 							"/>
          </g>
        </g>
        <g>
          <g>
            <path class="st2" d="M320.9,1033.1l-46.9-12.3l0.2-0.5l96.7-216.2l38,60.1L320.9,1033.1z M275.4,1020.2l45,11.8l87.3-167.6
              L371,806.3L275.4,1020.2z"/>
          </g>
        </g>
      </g>
      <g>
        <g>
          <g>
            <path class="st9" d="M427,1032.8h-51.8l-18.7-180c0,0-87,10.6-122.3-1.3c-15.9-5.3-19.6-21.5-18.8-38
              c1-21.1,9.5-42.6,9.5-42.6l79.8,8.3l44.3,3.3l58,4.3c6.1,0.5,11,5.4,11.2,11.6L427,1032.8z"/>
          </g>
        </g>
        <g>
          <g>
            <path class="st2" d="M427.5,1033.4h-52.8l0-0.4L356,853.4c-7.2,0.8-88.4,10-122-1.3c-13.7-4.6-20.2-17.6-19.1-38.5
              c1-20.9,9.4-42.5,9.5-42.8l0.1-0.4l80.2,8.3l102.2,7.5c6.4,0.5,11.4,5.7,11.6,12.1L427.5,1033.4z M375.6,1032.4h50.9
              l-8.9-234c-0.2-5.9-4.8-10.7-10.7-11.1l-102.2-7.5l-79.5-8.3c-1.1,2.9-8.3,22.8-9.3,42.1c-1,20.5,5.2,33.1,18.4,37.5
              c34.8,11.7,121.2,1.3,122.1,1.2l0.5-0.1l0.1,0.5L375.6,1032.4z"/>
          </g>
        </g>
      </g>
      <g>
        <g>
          <path class="st15" d="M348.9,782.5l-133.5,31.1c1-21.1,9.5-42.6,9.5-42.6l79.8,8.3L348.9,782.5z"/>
        </g>
      </g>
      <g>
        <g>
          <g>
            <path class="st8" d="M302.3,751.1l28.3-2.6c1.8-0.4,3.7-0.2,5.5,0.3l13,5c2.5,0.8,4.2,3,4.5,5.6l2.1,18.6
              c0.3,3.4-2.2,6.3-5.7,6.3l0,0l0,0c0,1.2-0.9,2.1-2.1,2.1H345c-0.8,0-1.5-0.5-1.9-1.2l-0.5-0.9h-2.2c-2.5,0-4.7-1.5-5.7-3.7
              l-3.6-7.8l-24.7,1.1L302.3,751.1z"/>
          </g>
        </g>
        <g>
          <g>
            <path class="st2" d="M347.9,787H345c-1,0-1.9-0.6-2.3-1.5l-0.3-0.7h-1.9c-2.7,0-5.1-1.6-6.1-4l-3.5-7.5l-24.8,1.2l-4.3-23.8
              l28.9-2.6c1.9-0.4,3.8-0.3,5.7,0.4l13,5c2.6,0.9,4.5,3.2,4.8,6l2.1,18.6c0.2,1.8-0.4,3.5-1.5,4.8c-1.1,1.2-2.5,1.9-4.2,2
              C350.2,786.1,349.2,787,347.9,787z M331.5,772.4l3.8,8.1c0.9,2.1,2.9,3.4,5.2,3.4h2.5l0.6,1.2c0.3,0.5,0.8,0.9,1.4,0.9h2.9
              c0.9,0,1.6-0.7,1.6-1.6v-0.5h0.5c1.5,0,2.9-0.6,3.9-1.7c1-1.1,1.4-2.5,1.3-4l-2.1-18.6c-0.2-2.4-1.9-4.4-4.1-5.2l-13-5
              c-1.7-0.6-3.5-0.7-5.2-0.3l-27.8,2.5l4,21.9L331.5,772.4z"/>
          </g>
        </g>
      </g>
      <g>
        <g>
          <g>
            <path class="st6" d="M213.5,728.5H174l15.3-46c2.8-8.3,9.2-14.8,17.4-17.8l36.7-13c0,0,27.1,22.7,36.3,0
              c0.2-0.5,15.4,5.5,26.3,9.6c6,2.3,10.3,7.6,11.3,13.9l17.2,109.2l-120.1,20.7L213.5,728.5z"/>
          </g>
        </g>
        <g>
          <g>
            <path class="st2" d="M214,805.8L213,729h-39.7l15.5-46.6c2.8-8.5,9.3-15.1,17.7-18.1l36.9-13.1l0.2,0.2
              c0.1,0.1,14.9,12.3,25.9,9.6c4.3-1.1,7.5-4.2,9.6-9.4c0.3-0.7,0.3-0.8,18.2,6c3,1.1,6,2.3,8.8,3.3
              c6.2,2.3,10.6,7.8,11.6,14.3l17.2,109.7L214,805.8z M174.7,728H214l0.9,76.6l119-20.5l-17.1-108.7c-1-6.1-5.2-11.3-11-13.5
              c-2.8-1-5.8-2.2-8.8-3.3c-7.2-2.8-15.3-5.9-17-6.3c-2.2,5.3-5.6,8.5-10.1,9.7c-10.9,2.7-24.6-8-26.6-9.6l-36.4,12.9
              c-8.1,2.9-14.4,9.2-17.1,17.4L174.7,728z"/>
          </g>
        </g>
      </g>
      <g>
        <g>
          <g>
            <path class="st8" d="M323.7,782.3c-3.2,1.3-6.9,1.1-6.9,1.1c-1,0-4.6-2.9-5.3-5.4l-1.1-4c-0.5-1.8-2.2-3-4.1-2.7L189,788
              c-3.7,0.6-7.4,0.8-11.1,0.3c-13.1-1.7-16.3-9.3-16.8-15c-0.3-2.8,0.2-5.6,1.1-8.3l9.2-28.2l1.6-4.8l1.1-3.3h39.5l-1.5,4.7
              l-0.4,1.2l-5.3,16.7h67.4l27.9-8.4c2.1-0.6,4.3-0.7,6.4-0.1l10.3,3c5,1.4,8.6,5.8,9,11l1.5,17.7
              C329.3,778.5,327.7,780.7,323.7,782.3z"/>
          </g>
        </g>
        <g>
          <g>
            <path class="st2" d="M182.3,789c-1.5,0-3-0.1-4.5-0.3c-13.3-1.7-16.7-9.3-17.2-15.5c-0.2-2.8,0.1-5.6,1.1-8.5l11.9-36.7h40.5
              l-7.2,22.7h66.6l27.8-8.4c2.2-0.6,4.5-0.7,6.7-0.1l10.4,3c5.1,1.5,8.9,6.1,9.3,11.4l1.5,17.7c0.5,4.3-1,6.8-5.4,8.5h0
              c-3.3,1.3-7,1.1-7.1,1.1c-1.4,0-5-3.2-5.7-5.8l-1.1-4c-0.4-1.6-1.9-2.5-3.5-2.3l-117.4,16.7C186.8,788.8,184.5,789,182.3,789
              z M174.4,729l-11.7,36.1c-0.9,2.8-1.3,5.5-1.1,8.1c0.5,5.8,3.7,13,16.3,14.6c3.5,0.4,7.1,0.3,10.9-0.3l117.4-16.7
              c2.1-0.3,4.1,1,4.6,3.1l1.1,4c0.7,2.4,4.1,5,4.8,5c0.1,0,3.7,0.1,6.8-1.1c3.9-1.5,5.2-3.6,4.7-7.4l-1.5-17.7
              c-0.4-4.9-3.9-9.2-8.6-10.5l-10.3-3c-2-0.5-4.1-0.5-6.1,0.1l-28.1,8.4h-68.1l7.2-22.7H174.4z"/>
          </g>
        </g>
      </g>
      <g>
        <g>
          <path class="st2" d="M319.2,575.2c-1.9-0.4-6.7,0-9.6,2.4c0.2-0.3,0.4-0.6,0.5-1c4.3-12.9-13.9-3.3-23.4-1.4
            c-2,0.4-6.3,1-6.3,1c-28.8-6.5-25.9,22.8-25.9,22.8c7.6-1,9.8,9.2,9.8,9.2c7.7-3.7,10.1-8.9,10.4-11.1
            c7.5,3.4,26.6,9.9,42.4-1.6C327.8,587.7,324,576.2,319.2,575.2z"/>
        </g>
      </g>
      <g>
        <g>
          <rect x="284.4" y="777.2" class="st2" width="110.9" height="10.4"/>
        </g>
      </g>
      <g>
        <g>
          
            <rect x="318" y="767.2" transform="matrix(0.9662 -0.2577 0.2577 0.9662 -188.9344 108.2335)" class="st2" width="1" height="15.5"/>
        </g>
      </g>
      <g>
        <g>
          
            <rect x="324.5" y="764.4" transform="matrix(0.9829 -0.1843 0.1843 0.9829 -136.7964 73.125)" class="st2" width="1" height="16.3"/>
        </g>
      </g>
      <g>
        <g>
          
            <rect x="340.5" y="771.3" transform="matrix(0.9744 -0.2249 0.2249 0.9744 -166.2081 96.6007)" class="st2" width="1" height="13.3"/>
        </g>
      </g>
      <g>
        <g>
          <polygon class="st2" points="389.1,782.4 418.1,699.5 424.3,699.5 395.3,782.4 						"/>
        </g>
      </g>
      <g>
        <g>
          
            <rect x="348" y="768.4" transform="matrix(0.9923 -0.124 0.124 0.9923 -93.6218 49.2223)" class="st2" width="1" height="16.1"/>
        </g>
      </g>
      <g>
        <g>
          
            <rect x="205.9" y="717.5" transform="matrix(0.3165 -0.9486 0.9486 0.3165 -532.7695 696.5811)" class="st2" width="22.1" height="1"/>
        </g>
      </g>
      <g>
        <g>
          <polygon class="st2" points="213.5,728.5 212,733.2 211.6,734.4 172.9,731.8 174,728.5 						"/>
        </g>
      </g>
    </g>
    <g id="Woman">
      <g>
        <g>
          <g>
            <path class="st5" d="M1246.4,1021.3v43.1h-57.8c2.5-7.4,28.3-22.2,28.3-22.2v-20.9H1246.4z"/>
          </g>
        </g>
        <g>
          <g>
            <path d="M1246.9,1064.9h-59l0.2-0.7c2.4-7.2,25.4-20.6,28.3-22.3v-21.1h30.5V1064.9z M1189.4,1063.9h56.6v-42.1h-28.5v20.7
              l-0.3,0.1C1216.9,1042.8,1193,1056.6,1189.4,1063.9z"/>
          </g>
        </g>
      </g>
      <g>
        <g>
          <g>
            <path class="st5" d="M1415,1053.3l-14.8,11.1H1356c0,0,7.5-14.9,23.4-18.5l-12.1-15.1l-17.4-21.8l30.8-17.2l13.1,23.6
              l11.5,20.7L1415,1053.3z"/>
          </g>
        </g>
        <g>
          <g>
            <path d="M1400.4,1064.9h-45.3l0.4-0.7c0.1-0.1,7.6-14.7,22.9-18.5l-29.4-36.8l31.7-17.8l24.9,44.7l10.1,17.6L1400.4,1064.9z
                M1356.8,1063.9h43.3l14.3-10.7l-9.6-16.8l-24.4-43.9l-29.8,16.7l29.7,37.1l-0.8,0.2
              C1366,1049.4,1358.6,1060.9,1356.8,1063.9z"/>
          </g>
        </g>
      </g>
      <g>
        <g>
          <polygon class="st2" points="1246.4,1021.3 1246.4,1037 1216.9,1041.2 1216.9,1021.3 						"/>
        </g>
      </g>
      <g>
        <g>
          <polygon class="st2" points="1393.7,1015.4 1367.3,1030.8 1349.8,1009 1380.6,991.8 						"/>
        </g>
      </g>
      <g>
        <g>
          <g>
            <polygon class="st10" points="1391.7,1007.8 1344.9,1021.3 1273.5,877.3 1271.3,847.8 1263.9,748.2 1260,718.5 1326.4,718.5 
              1326.4,867.5 							"/>
          </g>
        </g>
        <g>
          <g>
            <path class="st2" d="M1344.6,1021.9L1273,877.4l-9.6-129.1l-4-30.2h67.5v149.4l65.4,140.7L1344.6,1021.9z M1274,877.2
              l71.1,143.5l45.8-13.3l-65-139.9V719h-65.4l3.9,29.1L1274,877.2z"/>
          </g>
        </g>
      </g>
      <g>
        <g>
          <g>
            <path class="st8" d="M1252.6,580.7l1.2-25.8c0,0-30.1,5.6-11.8-44.7c1.9-5.2,5.6-9.6,10.3-12.4l5.2-3.1l23.4,4.9l4.9,86.1
              L1252.6,580.7z"/>
          </g>
        </g>
        <g>
          <g>
            <path class="st2" d="M1286.4,586.2l-34.3-5.1l1.2-25.7c-2.1,0.2-9,0.6-13.6-4.8c-6-7.1-5.4-20.8,1.9-40.7
              c1.9-5.3,5.6-9.8,10.5-12.7l5.4-3.2l23.9,5l0,0.4L1286.4,586.2z M1253.1,580.3l32.2,4.8l-4.9-85.2l-22.8-4.8l-5,3
              c-4.7,2.8-8.3,7.1-10.1,12.2c-7,19.3-7.7,33-2,39.7c5,5.9,13.2,4.4,13.3,4.4l0.6-0.1L1253.1,580.3z"/>
          </g>
        </g>
      </g>
      <g>
        <g>
          <g>
            <path class="st8" d="M1104.9,598l-7.4,29.5l-15.4-7.3l-33.9-16.1c-3.7,1.2-11.1-1.2-16-3.7c-4.7-2.3-1.2-7.4-1.2-7.4
              c-2.5-3.7,1.2-7.4,1.2-7.4c-1.2-4.9,2.5-7.4,2.5-7.4l-15.2-7.6c-1.7-0.8-2.7-2.7-2.3-4.5c0,0,0-0.1,0-0.1
              c0.6-2.3,3.2-3.5,5.4-2.7l31.7,11.3l16,11.1l21.5,7.7L1104.9,598z"/>
          </g>
        </g>
        <g>
          <g>
            <path class="st2" d="M1097.9,628.2l-49.6-23.6c-4.3,1.3-12.2-1.8-16.2-3.8c-1.4-0.7-2.3-1.7-2.6-2.9c-0.5-2,0.5-4.1,1-4.9
              c-2-3.4,0.5-6.7,1.3-7.5c-0.8-3.7,1.1-6.1,2.1-7.1l-14.6-7.3c-1.9-1-3-3.1-2.5-5.1l0-0.1c0.3-1.2,1.1-2.2,2.2-2.8
              c1.2-0.6,2.6-0.7,3.9-0.3l31.8,11.4l15.9,11l34.8,12.4L1097.9,628.2z M1048.3,603.6l48.9,23.2l7.1-28.5l-34.1-12.2l-15.9-11
              l-31.7-11.3c-1-0.4-2.1-0.3-3.1,0.2c-0.9,0.5-1.5,1.2-1.7,2.1c-0.4,1.6,0.5,3.3,2,4.1l16,8l-0.7,0.5
              c-0.1,0.1-3.4,2.3-2.3,6.8l0.1,0.3l-0.2,0.2c-0.1,0.1-3.4,3.5-1.2,6.8l0.2,0.3l-0.2,0.3c0,0-1.6,2.3-1,4.4
              c0.3,1,0.9,1.7,2.1,2.3c5.1,2.6,12.2,4.8,15.6,3.7L1048.3,603.6z"/>
          </g>
        </g>
      </g>
      <g>
        <g>
          <polygon class="st2" points="1104.9,598 1097.5,627.5 1082.2,620.2 1092,593.3 						"/>
        </g>
      </g>
      <g>
        <g>
          <g>
            <polygon class="st10" points="1297.5,718.5 1293.5,746.4 1271.3,847.8 1268.6,868.7 1253.2,1031.8 1211.4,1031.8 
              1209.4,869.5 1220.6,751.9 1223.5,721.2 							"/>
          </g>
        </g>
        <g>
          <g>
            <path class="st2" d="M1253.7,1032.3h-42.8l0-0.5l-2-162.2l14.2-148.8l75-2.8l-4.1,28.5l-22.2,101.4l-2.7,20.9L1253.7,1032.3z
                M1211.9,1031.3h40.9l15.3-162.6l2.7-21l22.2-101.4l3.9-27.3l-72.9,2.7l-14.1,147.9L1211.9,1031.3z"/>
          </g>
        </g>
      </g>
      <g>
        <g>
          <g>
            <path class="st8" d="M1405.9,796.8c-0.5,4.4-4,2.7-4,2.7l1,7.5c-1.5,5.6-5.1,2.8-5.1,2.8c-1.5,5.6-6.3,1.9-6.3,1.9
              c-2.7,4.7-6.7-1.3-6.7-1.3l-5.9-12.3l-4.3-16.9c0.9,7.5-4.3,9.3-4.3,9.3l-3.9-13.7l7-14l-1.1-8.5l-1.8-14.1l23.8-1.9
              c0.7,2.2,2.3,7.5,3.8,12.9c2,7.2,4,14.5,4,14.5l-0.2,15.3L1405.9,796.8z"/>
          </g>
        </g>
        <g>
          <g>
            <path class="st2" d="M1389,814c-2.4,0-4.6-3.2-4.7-3.4l-6-12.4l-3.4-13.4c-0.8,4.7-4.5,6-4.6,6l-0.5,0.2l-4.1-14.4l7-14
              l-2.9-22.9l24.7-2l0.1,0.4c0.6,1.9,1.9,6.1,3.8,12.9c2,7.2,4,14.5,4,14.5l0,0.1l-0.2,15.3l4.2,15.9l0,0.1
              c-0.2,1.6-0.8,2.6-1.7,3.2c-0.8,0.4-1.6,0.4-2.2,0.2l0.9,6.8l0,0.1c-0.5,2.1-1.4,3.3-2.7,3.8c-1,0.3-2,0-2.6-0.3
              c-0.5,1.4-1.3,2.3-2.3,2.7c-1.6,0.5-3.3-0.3-4.1-0.8C1390.9,813.5,1390.1,814,1389,814C1389.1,814,1389,814,1389,814z
                M1375,781l4.3,16.9l5.9,12.2c0.5,0.8,2.3,2.9,3.9,2.8c0.7,0,1.4-0.5,1.9-1.5l0.3-0.5l0.5,0.4c0,0,2,1.5,3.6,1
              c0.9-0.3,1.5-1.2,1.9-2.6l0.2-0.7l0.6,0.5c0,0,1.2,0.9,2.3,0.5c0.9-0.3,1.6-1.3,2-3l-1.1-8.3l0.8,0.4c0,0,1.2,0.6,2.1,0.1
              c0.6-0.3,1-1.1,1.2-2.3l-4.2-15.8l0.2-15.3c-0.2-0.8-2.1-7.6-4-14.4c-1.8-6.3-3-10.4-3.7-12.5l-22.8,1.8l2.8,22.2l-7,13.9
              l3.7,13c1.2-0.6,4.2-2.8,3.5-8.5L1375,781z"/>
          </g>
        </g>
      </g>
      <g>
        <g>
          <path class="st2" d="M1398,751.2l-25.8,3.1l-1.8-14.1l23.8-1.9C1394.9,740.5,1396.4,745.8,1398,751.2z"/>
        </g>
      </g>
      <g>
        <g>
          <polygon class="st2" points="1326.4,715 1326.4,742.9 1284.5,746.4 1263.9,748.2 1220.6,751.9 1223.5,721.2 						"/>
        </g>
      </g>
      <g>
        <g>
          <g>
            <path class="st9" d="M1098.8,593l-8.6,43.1l72.1,25.1c8.2,2.9,17.2,2.7,25.3-0.6l36.7-14.7l-7.4,86.1h115.7l-11.1-93.5
              l16,29.5l25.3,79.2h35.7l-22.1-96.4l-35.9-55.9c-5.4-8.4-13.8-14.3-23.5-16.6l-21.4-5.1h-41.6c-8.2,0-16.3,2.2-23.4,6.3
              l-56.8,33.1L1098.8,593z"/>
          </g>
        </g>
        <g>
          <g>
            <path class="st2" d="M1399.2,747.9h-36.7l-0.1-0.3l-25.3-79.2l-14.7-27.2l10.8,91.5h-116.8l0-0.5l7.3-85.3l-35.9,14.4
              c-8.2,3.3-17.3,3.5-25.7,0.6l-72.5-25.2l8.8-44l75.4,19.8l56.6-33c7.2-4.2,15.4-6.4,23.7-6.4l41.7,0l21.4,5.1
              c9.9,2.4,18.3,8.3,23.8,16.9l36,55.9L1399.2,747.9z M1363.2,746.9h34.7l-21.9-95.7l-35.9-55.8c-5.3-8.3-13.6-14.1-23.2-16.4
              l-21.3-5.1h-41.5c-8.1,0-16.1,2.2-23.2,6.3l-57,33.2l-74.8-19.6l-8.4,42.1l71.7,24.9c8.1,2.8,17,2.6,25-0.6l37.4-15
              l-7.4,86.4H1332l-11.3-95.6l17.2,31.8L1363.2,746.9z"/>
          </g>
        </g>
      </g>
      <g>
        <g>
          <path class="st2" d="M1249,497.4c0,0-3,8.6,4.9,26.5c0,0,16.7-5.4,8.4,14.3c0,0,5.7,16,21.7,19.7c0,0,13.5-6.2,18.5-24.6
            c0.7-2.7,1.7-9.4,1.7-9.4s14.8,17.5,35.8,7.5c4.3-2,8.7-8.7,9.7-16.2c1.6-11.2-3.2-29.2-23.8-29.2c-8.7,0-20.6,6.5-25.1,21.8
            C1300.7,507.8,1282.2,480.2,1249,497.4z"/>
        </g>
      </g>
      <g>
        <g>
          <polygon points="1391,811.9 1384.6,796.4 1381.9,783 1382.8,782.8 1385.6,796.1 1391.9,811.6 						"/>
        </g>
      </g>
      <g>
        <g>
          <polygon points="1397.3,810 1391,794.5 1388.2,781.6 1389.2,781.4 1391.9,794.2 1398.2,809.7 						"/>
        </g>
      </g>
      <g>
        <g>
          <line class="st11" x1="1381.3" y1="783.6" x2="1398.2" y2="779.2"/>
        </g>
        <g>
          <rect x="1381.1" y="780.9" transform="matrix(0.969 -0.2471 0.2471 0.969 -150.0007 367.6958)" width="17.5" height="1"/>
        </g>
      </g>
      <g>
        <g>
          <polygon points="1401.7,801.6 1398.2,791.4 1396,779.8 1396.9,779.6 1399.2,791.1 1402.6,801.3 						"/>
        </g>
      </g>
    </g>
    <g id="Underline">
      <g>
        <g>
          <rect x="71" y="1064.5" class="st2" width="1460" height="2"/>
        </g>
      </g>
    </g>
  </g>
</svg>
